<svg width="40" height="39" viewBox="0 0 40 39" fill="none" xmlns="http://www.w3.org/2000/svg">
<g filter="url(#filter0_d_212_7170)">
<path d="M38.1616 13.7166H29.1909L22.8848 1.5575C22.6587 1.12157 22.2764 0.799769 21.8083 0.651331C21.3401 0.502894 20.8423 0.545706 20.4063 0.7718C20.2548 0.850394 20.1191 0.947581 20 1.05875C19.8808 0.947659 19.7452 0.850394 19.5936 0.7718C19.1577 0.545706 18.6598 0.502972 18.1916 0.651331C17.7235 0.799691 17.3412 1.12157 17.1152 1.5575L10.4681 14.3741C10.242 14.81 10.1992 15.3079 10.3477 15.776C10.3983 15.9358 10.4706 16.0847 10.5594 16.2216H1.83844C1.47086 16.2216 1.17188 15.9227 1.17188 15.5551C1.17188 15.1876 1.47094 14.8885 1.83844 14.8885H8.51852C8.84211 14.8885 9.10445 14.6263 9.10445 14.3026C9.10445 13.979 8.84211 13.7166 8.51852 13.7166H1.83844C0.824766 13.7166 0 14.5414 0 15.5551C0 16.3958 0.567344 17.1059 1.33914 17.3241L4.73281 35.4233C4.95117 36.5883 5.97 37.4338 7.15531 37.4338H32.8448C34.0301 37.4338 35.0488 36.5883 35.2673 35.4233L38.6609 17.324C39.4327 17.1059 40 16.3958 40 15.5551C40 14.5413 39.1752 13.7166 38.1616 13.7166ZM20.9459 1.81219C21.1039 1.73024 21.2845 1.71469 21.4541 1.76852C21.6238 1.82227 21.7625 1.93899 21.8445 2.09703L28.4915 14.9137C28.5734 15.0717 28.589 15.2523 28.5352 15.422C28.4814 15.5917 28.3647 15.7303 28.2066 15.8123C28.0486 15.8943 27.868 15.9098 27.6983 15.856C27.5285 15.8023 27.3899 15.6856 27.308 15.5275L20.661 2.71078C20.4918 2.38453 20.6196 1.98141 20.9459 1.81219ZM28.7484 17.3936L28.1939 23.1106H20.5859V17.3936H28.7484ZM20 3.98157L26.2678 16.0669C26.2955 16.1203 26.3256 16.1719 26.3579 16.2216H13.6421C13.6744 16.1719 13.7045 16.1203 13.7322 16.067L14.3434 14.8886H23.2617C23.5853 14.8886 23.8477 14.6263 23.8477 14.3027C23.8477 13.9791 23.5853 13.7167 23.2617 13.7167H14.9511L20 3.98157ZM11.5084 14.9136L18.1555 2.09696C18.2375 1.93891 18.3761 1.82219 18.5459 1.76844C18.6123 1.74735 18.6803 1.73696 18.748 1.73696C18.8534 1.73696 18.958 1.76227 19.0541 1.81211C19.3804 1.98141 19.5082 2.38446 19.339 2.71071L12.6919 15.5274C12.6099 15.6854 12.4713 15.8021 12.3016 15.8559C12.132 15.9096 11.9514 15.8941 11.7933 15.8121C11.6352 15.7302 11.5185 15.5916 11.4648 15.4218C11.4109 15.2522 11.4265 15.0717 11.5084 14.9136ZM2.54445 17.3936H10.0743L10.6287 23.1106H3.61641L2.54445 17.3936ZM3.83617 24.2824H10.7424L11.2969 29.9994H4.90805L3.83617 24.2824ZM7.15523 36.262C6.53352 36.262 5.99914 35.8185 5.88461 35.2074L5.12781 31.1713H11.4105L11.9042 36.262H7.15523ZM19.4141 36.262H13.0815L12.5878 31.1713H19.4141V36.262ZM19.4141 29.9994H12.4741L11.9197 24.2824H19.4141V29.9994ZM19.4141 23.1106H11.8061L11.2516 17.3936H19.4141V23.1106ZM26.9185 36.262H20.5859V31.1713H27.4122L26.9185 36.262ZM27.5259 29.9995H20.5859V24.2825H28.0803L27.5259 29.9995ZM34.1154 35.2074C34.0009 35.8185 33.4664 36.262 32.8447 36.262H28.0958L28.5895 31.1713H34.8722L34.1154 35.2074ZM35.092 29.9995H28.7032L29.2577 24.2825H36.1639L35.092 29.9995ZM36.3836 23.1106H29.3713L29.9258 17.3935H37.4555L36.3836 23.1106ZM38.1616 16.2217H38.152C38.1516 16.2217 38.1513 16.2217 38.1509 16.2217H29.4406C29.5294 16.0848 29.6016 15.9359 29.6523 15.7761C29.7448 15.4845 29.763 15.1812 29.7089 14.8886H38.1616C38.5291 14.8886 38.8281 15.1877 38.8281 15.5552C38.8281 15.9227 38.5291 16.2217 38.1616 16.2217Z" fill="#688800"/>
</g>
<defs>
<filter id="filter0_d_212_7170" x="-4" y="0.564453" width="48" height="44.8691" filterUnits="userSpaceOnUse" color-interpolation-filters="sRGB">
<feFlood flood-opacity="0" result="BackgroundImageFix"/>
<feColorMatrix in="SourceAlpha" type="matrix" values="0 0 0 0 0 0 0 0 0 0 0 0 0 0 0 0 0 0 127 0" result="hardAlpha"/>
<feOffset dy="4"/>
<feGaussianBlur stdDeviation="2"/>
<feComposite in2="hardAlpha" operator="out"/>
<feColorMatrix type="matrix" values="0 0 0 0 0 0 0 0 0 0 0 0 0 0 0 0 0 0 0.25 0"/>
<feBlend mode="normal" in2="BackgroundImageFix" result="effect1_dropShadow_212_7170"/>
<feBlend mode="normal" in="SourceGraphic" in2="effect1_dropShadow_212_7170" result="shape"/>
</filter>
</defs>
</svg>
