<svg width="30" height="30" viewBox="0 0 30 30" fill="none" xmlns="http://www.w3.org/2000/svg">
<path d="M28.6212 11.038H21.8931L17.1636 1.91862C16.994 1.59166 16.7073 1.35031 16.3562 1.23899C16.0051 1.12766 15.6317 1.15977 15.3047 1.32934C15.1911 1.38828 15.0894 1.46117 15 1.54455C14.9106 1.46123 14.8089 1.38828 14.6952 1.32934C14.3683 1.15977 13.9948 1.12772 13.6437 1.23899C13.2926 1.35026 13.0059 1.59166 12.8364 1.91862L7.85109 11.531C7.68152 11.858 7.64941 12.2314 7.76074 12.5825C7.79871 12.7023 7.85297 12.814 7.91953 12.9167H1.37883C1.10314 12.9167 0.878906 12.6925 0.878906 12.4168C0.878906 12.1412 1.1032 11.9169 1.37883 11.9169H6.38889C6.63158 11.9169 6.82834 11.7202 6.82834 11.4774C6.82834 11.2347 6.63158 11.038 6.38889 11.038H1.37883C0.618574 11.038 0 11.6565 0 12.4168C0 13.0473 0.425508 13.5799 1.00436 13.7435L3.54961 27.318C3.71338 28.1917 4.4775 28.8259 5.36648 28.8259H24.6336C25.5226 28.8259 26.2866 28.1917 26.4504 27.318L28.9957 13.7435C29.5745 13.5799 30 13.0473 30 12.4168C30 11.6565 29.3814 11.038 28.6212 11.038ZM15.7094 2.10963C15.8279 2.04817 15.9633 2.03651 16.0906 2.07688C16.2179 2.11719 16.3219 2.20473 16.3833 2.32326L21.3686 11.9357C21.4301 12.0543 21.4417 12.1897 21.4014 12.317C21.3611 12.4443 21.2735 12.5482 21.1549 12.6097C21.0364 12.6712 20.901 12.6828 20.7737 12.6425C20.6464 12.6022 20.5424 12.5147 20.481 12.3961L15.4958 2.78358C15.3688 2.53889 15.4647 2.23655 15.7094 2.10963ZM21.5613 13.7957L21.1454 18.0835H15.4395V13.7957H21.5613ZM15 3.73666L19.7009 12.8007C19.7216 12.8407 19.7442 12.8794 19.7684 12.9167H10.2316C10.2558 12.8794 10.2784 12.8407 10.2991 12.8007L10.7575 11.9169H17.4463C17.689 11.9169 17.8857 11.7202 17.8857 11.4775C17.8857 11.2348 17.689 11.038 17.4463 11.038H11.2133L15 3.73666ZM8.63133 11.9357L13.6167 2.32321C13.6781 2.20467 13.7821 2.11713 13.9094 2.07682C13.9592 2.061 14.0102 2.05321 14.061 2.05321C14.1401 2.05321 14.2185 2.07219 14.2906 2.10957C14.5353 2.23655 14.6312 2.53883 14.5042 2.78352L9.51891 12.396C9.45744 12.5145 9.3535 12.6021 9.22617 12.6424C9.09897 12.6827 8.96355 12.6711 8.84496 12.6096C8.72643 12.5481 8.63889 12.4442 8.59857 12.3168C8.5582 12.1896 8.56986 12.0543 8.63133 11.9357ZM1.90834 13.7957H7.55572L7.97156 18.0835H2.7123L1.90834 13.7957ZM2.87713 18.9623H8.05682L8.47266 23.25H3.68104L2.87713 18.9623ZM5.36643 27.947C4.90014 27.947 4.49936 27.6144 4.41346 27.1561L3.84586 24.1289H8.55785L8.92816 27.947H5.36643V27.947ZM14.5605 27.947H9.81111L9.44086 24.1289H14.5605V27.947ZM14.5605 23.25H9.35561L8.93977 18.9623H14.5605V23.25ZM14.5605 18.0835H8.85457L8.43873 13.7957H14.5605V18.0835ZM20.1889 27.947H15.4395V24.1289H20.5591L20.1889 27.947ZM20.6444 23.2501H15.4395V18.9624H21.0602L20.6444 23.2501ZM25.5865 27.1561C25.5006 27.6144 25.0998 27.947 24.6335 27.947H21.0718L21.4421 24.1289H26.1541L25.5865 27.1561ZM26.319 23.2501H21.5274L21.9432 18.9624H27.1229L26.319 23.2501ZM27.2877 18.0834H22.0285L22.4443 13.7956H28.0917L27.2877 18.0834ZM28.6212 12.9168H28.614C28.6137 12.9168 28.6135 12.9168 28.6132 12.9168H22.0805C22.147 12.8141 22.2012 12.7024 22.2393 12.5826C22.3086 12.3638 22.3222 12.1364 22.2817 11.9169H28.6212C28.8969 11.9169 29.1211 12.1412 29.1211 12.4169C29.1211 12.6925 28.8968 12.9168 28.6212 12.9168Z" fill="#F2F2F2"/>
</svg>
