<svg width="32" height="32" viewBox="0 0 32 32" fill="none" xmlns="http://www.w3.org/2000/svg">
<path d="M27.3093 4.68628C24.2878 1.66431 20.2705 0 15.9976 0C11.7244 0 7.70703 1.66431 4.68555 4.68628C1.66406 7.70825 0 11.7263 0 16C0 18.9402 0.804443 21.8149 2.32617 24.3132C2.46094 24.5344 2.74951 24.6045 2.97046 24.4697C3.19165 24.335 3.26147 24.0466 3.12695 23.8257C1.69458 21.4744 0.9375 18.7681 0.9375 16C0.9375 11.9766 2.50391 8.19409 5.34839 5.34912C8.19287 2.50415 11.9749 0.9375 15.9976 0.9375C20.02 0.9375 23.802 2.50415 26.6465 5.34912C29.491 8.19409 31.0574 11.9768 31.0574 16C31.0574 20.0232 29.491 23.8059 26.6465 26.6509C23.802 29.4958 20.02 31.0625 15.9976 31.0625C11.3794 31.0625 7.08057 28.9866 4.20312 25.3672C4.04199 25.1646 3.74683 25.1309 3.54443 25.292C3.3418 25.4531 3.30811 25.748 3.46924 25.9507C6.52563 29.7952 11.092 32 15.9976 32C20.2705 32 24.2878 30.3357 27.3093 27.3137C30.3308 24.2917 31.9949 20.2737 31.9949 16C31.9949 11.7263 30.3308 7.70825 27.3093 4.68628Z" fill="#688800"/>
<path d="M13.4293 13.2889L15.0377 12.0777C15.2901 11.8875 15.4219 11.5755 15.3822 11.2635C15.3275 10.8353 15.3028 10.399 15.3089 9.96665C15.3219 9.03989 14.6197 8.21372 13.7105 8.08579L12.3092 7.88828C11.3604 7.75473 10.4822 8.00864 9.83649 8.60361C9.18977 9.19956 8.86433 10.0553 8.92023 11.0133C9.00471 12.4666 9.29304 13.9005 9.77692 15.2755C10.8577 18.3468 12.8311 20.9679 15.4837 22.8556C16.671 23.7005 17.9693 24.3741 19.3426 24.857C19.7103 24.9864 20.0792 25.0506 20.4381 25.0506C20.9622 25.0506 21.4649 24.9134 21.9107 24.6424C22.6612 24.1861 23.1483 23.4122 23.2818 22.4632L23.4752 21.0907C23.6036 20.1805 22.9928 19.245 22.1138 19.0055C21.7015 18.8932 21.2938 18.7508 20.9017 18.5824C20.6036 18.4544 20.2572 18.4967 19.9976 18.6922L18.4019 19.8939C18.2618 19.9994 18.0711 20.005 17.9276 19.9078C17.0218 19.2957 16.2044 18.5599 15.4976 17.7208C15.3309 17.5228 15.035 17.4974 14.8372 17.6642C14.6392 17.8309 14.6138 18.1266 14.7806 18.3246C15.543 19.2301 16.4251 20.024 17.4027 20.6847C17.8778 21.006 18.5062 20.9891 18.9659 20.6427L20.5484 19.451C20.9754 19.6334 21.419 19.7877 21.8673 19.91C22.2918 20.0257 22.6095 20.5165 22.547 20.9601L22.3536 22.3324C22.2598 22.9979 21.9295 23.5338 21.4237 23.8414C20.9171 24.1493 20.2884 24.1959 19.6534 23.9725C18.3631 23.5187 17.1431 22.8858 16.0272 22.0919C13.533 20.3167 11.6776 17.8521 10.6612 14.9642C10.2066 13.672 9.93562 12.3243 9.85603 10.9586C9.81696 10.2865 10.0355 9.69492 10.4715 9.29306C10.9071 8.89194 11.5128 8.72275 12.1783 8.8165L13.5797 9.01401C14.0152 9.07529 14.3778 9.50571 14.3714 9.95346C14.3651 10.4183 14.3907 10.8873 14.4481 11.3482L12.8656 12.5399C12.4058 12.8861 12.2159 13.4852 12.3931 14.0309C12.6666 14.8714 13.0294 15.6874 13.4713 16.4557C13.6004 16.68 13.887 16.7572 14.1114 16.6283C14.3358 16.4991 14.4129 16.2125 14.284 15.9881C13.8741 15.276 13.5379 14.5201 13.285 13.7411C13.2313 13.576 13.2894 13.3944 13.4293 13.2889Z" fill="#688800"/>
</svg>
