<svg width="32" height="32" viewBox="0 0 32 32" fill="none" xmlns="http://www.w3.org/2000/svg">
<path d="M27.3137 4.68631C24.2917 1.66425 20.2737 0 16 0C11.7263 0 7.70831 1.66425 4.68631 4.68631C1.66425 7.70831 0 11.7263 0 16C0 20.2737 1.66425 24.2917 4.68631 27.3137C7.70831 30.3358 11.7263 32 16 32C20.2737 32 24.2917 30.3358 27.3137 27.3137C30.3357 24.2916 32 20.2737 32 16C32 11.7263 30.3358 7.70831 27.3137 4.68631ZM16 30.9895C7.73475 30.9895 1.0105 24.2653 1.0105 16C1.0105 7.73475 7.73475 1.0105 16 1.0105C24.2653 1.0105 30.9895 7.73475 30.9895 16C30.9895 24.2653 24.2653 30.9895 16 30.9895Z" fill="#688800"/>
<path d="M25.062 6.16414C24.9068 6.04726 24.6984 6.02976 24.5259 6.11901L4.98902 16.2243C4.82014 16.3116 4.71458 16.4864 4.71583 16.6765C4.71708 16.8666 4.82502 17.04 4.99514 17.125L10.1054 19.68V24.7429C10.1054 24.8754 10.1505 25.0065 10.2416 25.1027C10.3425 25.2091 10.4766 25.2625 10.6107 25.2625C10.6952 25.2625 10.7797 25.2414 10.8561 25.1989L16.7026 21.9508L21.1775 23.8686C21.2726 23.9094 21.378 23.9263 21.4799 23.9073C21.6896 23.8681 21.8455 23.7075 21.8852 23.509L23.0174 17.848C23.0799 17.5353 22.8408 17.2436 22.5219 17.2436C22.281 17.2435 22.0737 17.4135 22.0265 17.6496L21.0163 22.7001L16.8729 20.9243C16.7293 20.8628 16.5652 20.8712 16.4285 20.947L11.116 23.8985V19.3677C11.116 19.1763 11.0078 19.0015 10.8366 18.9158L6.33571 16.6653L24.0563 7.49945L22.5185 15.1884C22.456 15.5011 22.6951 15.7928 23.014 15.7928C23.2548 15.7928 23.4622 15.6227 23.5095 15.3866L25.2535 6.66676C25.2915 6.47639 25.2171 6.28095 25.062 6.16414Z" fill="#688800"/>
<path d="M21.7856 10.2976C21.6268 10.0966 21.3425 10.0461 21.1243 10.1805L12.3664 15.57C12.217 15.6619 12.126 15.8249 12.126 16.0003V21.3898C12.1259 21.6242 12.287 21.8277 12.515 21.8816C12.5539 21.8908 12.5928 21.8952 12.6313 21.8952C12.8192 21.8952 12.9961 21.7898 13.083 21.6158L15.0674 17.6471L21.7463 10.9681C21.9275 10.7869 21.9444 10.4987 21.7856 10.2976ZM14.2949 16.9904C14.2566 17.0288 14.2246 17.0731 14.2003 17.1217L13.1365 19.2494V16.2826L17.9887 13.2966L14.2949 16.9904Z" fill="#688800"/>
</svg>
