<svg width="40" height="40" viewBox="0 0 40 40" fill="none" xmlns="http://www.w3.org/2000/svg">
<path d="M38.1616 35.0709H37.495V17.6878C39.0002 16.7193 40 15.0305 40 13.1114C40 13.0095 39.9734 12.9092 39.9228 12.8207L35.2734 4.68414C34.9468 4.11281 34.3352 3.75781 33.6771 3.75781H6.32289C5.66484 3.75781 5.0532 4.11273 4.72664 4.68414L0.0771875 12.8207C0.0266406 12.9092 0 13.0095 0 13.1114C0 15.0305 0.999844 16.7193 2.505 17.6878V35.0709H1.83844C1.51484 35.0709 1.2525 35.3332 1.2525 35.6568C1.2525 35.9804 1.51484 36.2427 1.83844 36.2427H38.1616C38.4852 36.2427 38.7475 35.9804 38.7475 35.6568C38.7475 35.3332 38.4852 35.0709 38.1616 35.0709ZM1.21227 13.6973H3.0907C3.4143 13.6973 3.67664 13.435 3.67664 13.1114C3.67664 12.7878 3.4143 12.5255 3.0907 12.5255H1.59562L5.74414 5.26555C5.86258 5.05836 6.0843 4.92969 6.32289 4.92969H33.6771C33.9157 4.92969 34.1375 5.05836 34.2559 5.26555L38.4043 12.5255H36.9089C36.5852 12.5255 36.323 12.7878 36.323 13.1114C36.323 13.435 36.5852 13.6973 36.9089 13.6973H38.7877C38.5012 15.7742 36.7148 17.379 34.5605 17.379C32.4062 17.379 30.6207 15.7741 30.3341 13.6973H34.4041C34.7278 13.6973 34.9901 13.435 34.9901 13.1114C34.9901 12.7878 34.7278 12.5255 34.4041 12.5255H5.59617C5.27258 12.5255 5.01023 12.7878 5.01023 13.1114C5.01023 13.435 5.27258 13.6973 5.59617 13.6973H9.66578C9.37922 15.7741 7.59367 17.379 5.43945 17.379C3.28508 17.379 1.49875 15.7742 1.21227 13.6973ZM29.0798 13.6973C28.7933 15.7741 27.0077 17.379 24.8535 17.379C22.6992 17.379 20.9138 15.7741 20.6272 13.6973H29.0798ZM19.3728 13.6973C19.0863 15.7741 17.3007 17.379 15.1465 17.379C12.9923 17.379 11.2067 15.7741 10.9202 13.6973H19.3728ZM33.1917 35.0709H26.8485V33.1115H33.1917V35.0709ZM33.1917 31.9396H26.8485V21.2125H33.1917V31.9396ZM36.3231 35.0709H34.3637V20.6266C34.3637 20.303 34.1014 20.0406 33.7777 20.0406H26.2627C25.939 20.0406 25.6767 20.303 25.6767 20.6266V35.0709H3.67687V18.2561C4.23008 18.4462 4.82258 18.5509 5.43945 18.5509C7.55625 18.5509 9.39445 17.3355 10.293 15.5659C11.1915 17.3355 13.0297 18.5509 15.1465 18.5509C17.2633 18.5509 19.1015 17.3355 20 15.5659C20.8985 17.3355 22.7367 18.5509 24.8535 18.5509C26.9703 18.5509 28.8085 17.3355 29.707 15.5659C30.6055 17.3355 32.4437 18.5509 34.5605 18.5509C35.1774 18.5509 35.7699 18.4462 36.3231 18.2562V35.0709Z" fill="#688800"/>
<path d="M23.1317 20.041H6.22266C5.89906 20.041 5.63672 20.3034 5.63672 20.627V32.5259C5.63672 32.8495 5.89906 33.1119 6.22266 33.1119H23.1317C23.4554 33.1119 23.7177 32.8495 23.7177 32.5259V20.627C23.7177 20.3033 23.4554 20.041 23.1317 20.041ZM22.5458 31.94H6.80859V21.2129H22.5458V31.94Z" fill="#688800"/>
</svg>
