<svg width="40" height="40" viewBox="0 0 40 40" fill="none" xmlns="http://www.w3.org/2000/svg">
<path d="M32.3828 14.7292H29.8645L30.6232 6.0175C30.6247 6.00172 30.6249 5.98617 30.625 5.97063C30.625 5.9693 30.6251 5.96805 30.6251 5.96672C30.6251 5.96649 30.6251 5.96633 30.6251 5.9661C30.6251 5.72899 30.4821 5.52 30.2718 5.42914C30.27 5.42836 30.2683 5.42742 30.2665 5.42664C30.2535 5.42117 30.24 5.41648 30.2264 5.41195C30.2213 5.41031 30.2164 5.40828 30.2114 5.40672C30.2003 5.40336 30.1889 5.4007 30.1775 5.39797C30.1696 5.39609 30.1619 5.39383 30.1539 5.39227C30.1439 5.39031 30.1336 5.38906 30.1235 5.38758C30.1139 5.38617 30.1046 5.38453 30.095 5.38367C30.0933 5.38352 30.0918 5.3832 30.0902 5.38305C30.0799 5.38211 30.0697 5.38227 30.0595 5.38188C30.0526 5.38164 30.0459 5.38086 30.039 5.38086H30.0317C30.0311 5.38086 30.0304 5.38086 30.0299 5.38086H18.0477C17.7243 5.38086 17.4618 5.64336 17.4618 5.9668C17.4618 6.28946 17.7243 6.55274 18.0477 6.55274H29.4003L28.2343 19.9415C28.2341 19.9425 28.2341 19.9435 28.2339 19.9445L27.9397 23.3227H7.57956L7.92011 19.8072H11.7968C12.1204 19.8072 12.3827 19.5449 12.3827 19.2213C12.3827 18.8977 12.1204 18.6354 11.7968 18.6354H8.0337L8.75277 11.2139H14.9227C15.2464 11.2139 15.5087 10.9515 15.5087 10.6279C15.5087 10.3043 15.2464 10.042 14.9227 10.042H8.86636L9.20449 6.55274H15.704C16.0266 6.55274 16.2899 6.28946 16.2899 5.9668C16.2899 5.64336 16.0266 5.38086 15.704 5.38086H8.67269C8.67238 5.38086 8.67214 5.38094 8.67183 5.38094C8.3966 5.38086 8.15784 5.57461 8.10011 5.84321C8.09972 5.84516 8.09902 5.84703 8.09863 5.84899C8.09566 5.8636 8.0937 5.87852 8.09175 5.89352C8.0912 5.89828 8.09019 5.90281 8.08972 5.90758C8.08964 5.90852 8.08941 5.90938 8.08933 5.91031L7.68901 10.042H0.58594C0.262267 10.042 0 10.3043 0 10.6279C0 10.9515 0.262267 11.2139 0.58594 11.2139H7.57542L6.85636 18.6354H4.7658C4.44213 18.6354 4.17986 18.8977 4.17986 19.2213C4.17986 19.5449 4.44213 19.8072 4.7658 19.8072H6.74284L6.35127 23.848C6.3512 23.8486 6.3512 23.8492 6.35112 23.8498L5.74573 30.0981C5.74565 30.0988 5.74557 30.0996 5.74549 30.1003L5.74526 30.1025C5.74448 30.1106 5.74455 30.1186 5.74409 30.1267C5.74354 30.1375 5.74244 30.1481 5.74244 30.159C5.74244 30.1595 5.74252 30.1599 5.74252 30.1605C5.74252 30.1756 5.74362 30.1904 5.74471 30.2053C5.74518 30.21 5.74502 30.2149 5.74557 30.2195C5.74713 30.2347 5.74971 30.2496 5.75244 30.2645C5.75323 30.2688 5.75362 30.2733 5.75448 30.2776C5.75674 30.2888 5.75994 30.2997 5.76291 30.3107C5.76494 30.3185 5.76659 30.3263 5.76893 30.3339C5.76963 30.336 5.77057 30.3381 5.77119 30.3403C5.79955 30.4274 5.84768 30.5057 5.91049 30.5696C5.91166 30.5708 5.9126 30.5721 5.91377 30.5732C5.92002 30.5795 5.92682 30.5851 5.93338 30.591C5.97377 30.6281 6.0194 30.6595 6.06932 30.6841C6.07971 30.6892 6.08995 30.6946 6.10057 30.6991C6.10377 30.7005 6.10721 30.7014 6.11049 30.7027C6.12518 30.7085 6.13995 30.7142 6.15518 30.7189C6.15659 30.7193 6.15791 30.7196 6.15932 30.72C6.17666 30.7252 6.19416 30.7297 6.21206 30.7334C6.2144 30.7338 6.21682 30.734 6.21909 30.7345C6.23612 30.7377 6.25323 30.7404 6.27065 30.7421C6.27104 30.7421 6.27135 30.7422 6.27174 30.7423C6.29096 30.7442 6.31002 30.7451 6.32893 30.7451C6.32917 30.7451 6.32948 30.745 6.32979 30.745H8.93824C9.22629 32.9289 11.0986 34.6203 13.3599 34.6203C15.6211 34.6203 17.4933 32.9289 17.7814 30.745H27.1798C27.4679 32.9289 29.3401 34.6203 31.6014 34.6203C33.8626 34.6203 35.735 32.9289 36.0231 30.745H38.6322C38.6326 30.745 38.633 30.7451 38.6334 30.7451C38.653 30.7451 38.6722 30.7439 38.6912 30.7421C38.6947 30.7417 38.698 30.741 38.7014 30.7406C38.7166 30.7388 38.7318 30.7367 38.7466 30.7338C38.753 30.7325 38.7592 30.7308 38.7655 30.7293C38.777 30.7267 38.7886 30.7239 38.7998 30.7205C38.8075 30.7182 38.8149 30.7156 38.8224 30.713C38.832 30.7097 38.8416 30.7063 38.8511 30.7024C38.8592 30.6992 38.867 30.6957 38.8748 30.6922C38.8834 30.6882 38.892 30.6842 38.9004 30.6799C38.9084 30.6758 38.916 30.6716 38.9237 30.6672C38.9317 30.6625 38.9397 30.6577 38.9476 30.6527C38.9549 30.648 38.9623 30.6432 38.9693 30.6382C38.9773 30.6327 38.9848 30.6268 38.9926 30.6209C38.999 30.6158 39.0055 30.6108 39.0117 30.6055C39.0198 30.5987 39.0273 30.5916 39.035 30.5843C39.0403 30.5792 39.0459 30.5742 39.051 30.5689C39.0591 30.5606 39.0669 30.5519 39.0746 30.5431C39.0787 30.5383 39.083 30.5337 39.087 30.5288C39.0956 30.5182 39.1034 30.5073 39.1112 30.4963C39.1139 30.4924 39.1169 30.4888 39.1194 30.4849C39.129 30.4706 39.138 30.456 39.1462 30.4408C39.1469 30.4399 39.1475 30.439 39.1479 30.438C39.1567 30.4217 39.1648 30.4051 39.1721 30.3879C39.1741 30.383 39.1757 30.3779 39.1777 30.373C39.1824 30.3609 39.1871 30.3488 39.1911 30.3362C39.1937 30.3281 39.1955 30.3197 39.1978 30.3115C39.2004 30.3017 39.2031 30.292 39.2053 30.2821C39.2073 30.2733 39.2085 30.2642 39.21 30.2553C39.2113 30.2474 39.213 30.2396 39.2141 30.2316C39.2389 30.0325 39.6977 26.3513 39.9027 23.971C39.9029 23.9687 39.903 23.9664 39.9032 23.9641C39.9622 23.278 40 22.7001 40 22.3464C40 18.1463 36.583 14.7292 32.3828 14.7292ZM29.7624 15.9012H32.1595L31.8533 19.4165H29.4562L29.7624 15.9012ZM13.3601 33.4483C11.5462 33.4483 10.0706 31.9727 10.0706 30.1589C10.0706 28.3452 11.5463 26.8695 13.3601 26.8695C15.1738 26.8695 16.6494 28.3452 16.6494 30.1589C16.6494 31.9727 15.1738 33.4483 13.3601 33.4483ZM31.6014 33.4483C29.7876 33.4483 28.3121 31.9727 28.3121 30.1589C28.3121 28.3452 29.7877 26.8695 31.6014 26.8695C33.4152 26.8695 34.8908 28.3452 34.8908 30.1589C34.8908 31.9727 33.4152 33.4483 31.6014 33.4483ZM38.1144 29.5728H36.0233C35.7353 27.3888 33.8629 25.6973 31.6015 25.6973C29.3403 25.6973 27.4679 27.3888 27.18 29.5728H17.7816C17.4937 27.3888 15.6214 25.6973 13.3601 25.6973C11.0987 25.6973 9.22629 27.3888 8.93832 29.5728H6.97393L7.46604 24.4943H28.4767V24.4946C28.477 24.4946 28.4772 24.4946 28.4775 24.4946C28.4971 24.4946 28.5166 24.4935 28.5358 24.4916C28.5394 24.4912 28.5429 24.4905 28.5465 24.49C28.5618 24.4882 28.5771 24.486 28.5921 24.483C28.5985 24.4817 28.6049 24.4799 28.6113 24.4784C28.623 24.4755 28.6347 24.4728 28.6461 24.4694C28.6539 24.467 28.6614 24.4642 28.6689 24.4616C28.6788 24.4581 28.6886 24.4548 28.6982 24.4509C28.7064 24.4475 28.7143 24.4437 28.7222 24.44C28.7309 24.436 28.7396 24.432 28.7479 24.4277C28.7559 24.4234 28.7637 24.4189 28.7716 24.4144C28.7796 24.4097 28.7876 24.4049 28.7954 24.3999C28.803 24.395 28.8102 24.3898 28.8175 24.3847C28.8252 24.3792 28.8327 24.3736 28.8402 24.3677C28.8469 24.3623 28.8535 24.3568 28.8601 24.3511C28.8675 24.3447 28.8748 24.3381 28.8818 24.3313C28.8878 24.3256 28.8937 24.3198 28.8995 24.3137C28.9065 24.3064 28.9133 24.2988 28.92 24.2911C28.9253 24.285 28.9304 24.2789 28.9354 24.2727C28.9419 24.2644 28.9481 24.256 28.9542 24.2475C28.9588 24.2411 28.9632 24.2347 28.9676 24.2281C28.9733 24.2193 28.9788 24.2102 28.984 24.201C28.988 24.1941 28.9921 24.1873 28.9957 24.1802C29.0006 24.171 29.0048 24.1616 29.0093 24.1522C29.0127 24.1446 29.0162 24.1372 29.0193 24.1294C29.0232 24.1201 29.0264 24.1107 29.0297 24.1012C29.0326 24.0929 29.0357 24.0845 29.0382 24.0759C29.0408 24.0669 29.0429 24.0576 29.0453 24.0484C29.0475 24.0391 29.05 24.0298 29.0518 24.0204C29.0536 24.0112 29.0547 24.0018 29.0561 23.9924C29.0575 23.9827 29.0592 23.9732 29.0601 23.9634C29.0603 23.9619 29.0606 23.9606 29.0607 23.9592L29.3543 20.5881H32.3826C34.1779 20.5881 34.9876 21.5183 35.8447 22.5031C36.5519 23.3157 37.3416 24.2223 38.6837 24.4435C38.5133 26.2459 38.2377 28.5596 38.1144 29.5728ZM38.7839 23.2693C37.9132 23.0918 37.3775 22.4797 36.7285 21.734C35.9169 20.8016 34.926 19.6637 33.0265 19.4517L33.3297 15.9714C36.4362 16.4308 38.8281 19.1143 38.8281 22.3466C38.8281 22.5662 38.8117 22.8852 38.7839 23.2693Z" fill="#688800"/>
<path d="M13.3604 28.0098C12.1757 28.0098 11.2119 28.9735 11.2119 30.1582C11.2119 31.3429 12.1757 32.3067 13.3604 32.3067C14.545 32.3067 15.5088 31.3429 15.5088 30.1582C15.5088 28.9736 14.545 28.0098 13.3604 28.0098ZM13.3604 31.1348C12.8218 31.1348 12.3838 30.6967 12.3838 30.1582C12.3838 29.6197 12.8218 29.1816 13.3604 29.1816C13.8989 29.1816 14.3369 29.6197 14.3369 30.1582C14.3369 30.6967 13.8988 31.1348 13.3604 31.1348Z" fill="#688800"/>
<path d="M31.6016 28.0098C30.417 28.0098 29.4531 28.9735 29.4531 30.1582C29.4531 31.3429 30.417 32.3067 31.6016 32.3067C32.7862 32.3067 33.75 31.3429 33.75 30.1582C33.75 28.9736 32.7862 28.0098 31.6016 28.0098ZM31.6016 31.1348C31.0631 31.1348 30.625 30.6967 30.625 30.1582C30.625 29.6197 31.0631 29.1816 31.6016 29.1816C32.1401 29.1816 32.5781 29.6197 32.5781 30.1582C32.5781 30.6967 32.1401 31.1348 31.6016 31.1348Z" fill="#688800"/>
<path d="M5.54716 14.7285H2.68262C2.35895 14.7285 2.09668 14.9907 2.09668 15.3142C2.09668 15.6377 2.35895 15.8999 2.68262 15.8999H5.54716C5.87083 15.8999 6.1331 15.6377 6.1331 15.3142C6.1331 14.9907 5.87083 14.7285 5.54716 14.7285Z" fill="#688800"/>
</svg>
