<svg width="40" height="40" viewBox="0 0 40 40" fill="none" xmlns="http://www.w3.org/2000/svg">
<g clip-path="url(#clip0_212_7234)">
<path d="M38.4158 8.8259L20.2542 0.0582422C20.0932 -0.0194141 19.9057 -0.0194141 19.7448 0.0582422L1.58313 8.8259C1.38063 8.92363 1.25195 9.12871 1.25195 9.35355V30.6464C1.25195 30.8713 1.38063 31.0764 1.58313 31.1741L19.7447 39.9418C19.8252 39.9806 19.9123 40 19.9995 40C20.0866 40 20.1737 39.9806 20.2542 39.9418L38.4158 31.1741C38.6183 31.0764 38.747 30.8713 38.747 30.6464V9.35363C38.747 9.12863 38.6182 8.92371 38.4158 8.8259ZM19.9995 1.2366L36.8133 9.35355L31.9393 11.7065C31.9084 11.683 31.8759 11.6613 31.8401 11.644L15.1405 3.5823L19.9995 1.2366ZM13.8172 4.2448L30.6066 12.35L27.1679 14.01L10.3855 5.90816L13.8172 4.2448ZM30.9994 13.4615V19.5979L27.7874 21.1486V15.0121L30.9994 13.4615ZM37.5751 30.2788L20.5854 38.4805V18.4889L24.638 16.5325C24.9294 16.3918 25.0516 16.0416 24.9109 15.7501C24.7702 15.4588 24.4199 15.3364 24.1284 15.4772L19.9995 17.4706L18.3748 16.6862C18.0833 16.5454 17.733 16.6677 17.5923 16.9591C17.4516 17.2505 17.5738 17.6008 17.8652 17.7415L19.4135 18.4889V38.4805L2.42383 30.2786V10.2871L15.3613 16.5328C15.4434 16.5725 15.5302 16.5912 15.6156 16.5912C15.8334 16.5912 16.0427 16.4692 16.1437 16.2599C16.2844 15.9685 16.1622 15.6182 15.8708 15.4775L3.18563 9.35355L9.00633 6.54356L26.6074 15.0407C26.61 15.0443 26.6129 15.0475 26.6155 15.051V22.0821C26.6155 22.2838 26.7192 22.4712 26.89 22.5785C26.9848 22.638 27.0931 22.6681 27.2016 22.6681C27.2884 22.6681 27.3755 22.6488 27.4563 22.6098L31.8401 20.4935C32.0426 20.3957 32.1713 20.1907 32.1713 19.9658V12.8959L37.5751 10.2871V30.2788Z" fill="#688800"/>
<path d="M7.25998 28.0053L4.59475 26.7186C4.30318 26.5778 3.95303 26.7001 3.81232 26.9915C3.67162 27.2829 3.79381 27.6333 4.08521 27.774L6.75045 29.0606C6.83256 29.1003 6.91936 29.119 7.00475 29.119C7.22256 29.119 7.43178 28.997 7.5328 28.7877C7.67358 28.4962 7.55139 28.1461 7.25998 28.0053Z" fill="#688800"/>
<path d="M9.71306 26.4103L4.5986 23.9412C4.30712 23.8005 3.95688 23.9227 3.81618 24.2142C3.67556 24.5056 3.79774 24.8559 4.08915 24.9966L9.2036 27.4657C9.28571 27.5053 9.37251 27.5241 9.4579 27.5241C9.67571 27.5241 9.88493 27.4021 9.98595 27.1928C10.1266 26.9012 10.0045 26.5509 9.71306 26.4103Z" fill="#688800"/>
</g>
<defs>
<clipPath id="clip0_212_7234">
<rect width="40" height="40" fill="white"/>
</clipPath>
</defs>
</svg>
