<svg width="71" height="64" viewBox="0 0 71 64" fill="none" xmlns="http://www.w3.org/2000/svg">
<path d="M45.4653 0.627354C39.885 1.00288 34.5 4.86324 27.5604 13.4627C26.9971 14.1611 26.5014 14.7395 26.4639 14.7395C26.4263 14.7395 26.3512 14.7845 26.2986 14.8446C26.2235 14.9197 26.2235 14.9347 26.2986 14.8972C26.3437 14.8671 26.3888 14.8671 26.3888 14.8897C26.3888 14.9497 25.4124 16.204 25.3673 16.204C25.3448 16.204 25.5401 15.9261 25.8029 15.5806C26.3287 14.8897 26.4038 14.8446 24.6989 16.2415C24.0906 16.7372 23.5273 17.1954 23.4372 17.2554C23.347 17.3155 23.2043 17.4432 23.1217 17.5333C23.0391 17.631 22.934 17.7061 22.9039 17.7061C22.8138 17.7061 21.9576 18.5923 21.9576 18.6824C21.9576 18.72 21.9276 18.75 21.89 18.735C21.8149 18.72 21.507 19.0429 21.507 19.1481C21.507 19.1856 21.4619 19.1931 21.4169 19.1631C21.3643 19.1331 21.3868 19.1856 21.4694 19.2908C21.8975 19.824 21.86 19.794 21.2141 19.103C15.9718 13.4927 12.2842 11.0218 9.15232 11.0068C8.61157 11.0068 8.16095 11.0443 7.838 11.1269C5.58487 11.7127 3.90253 13.7631 2.64829 17.4432C2.49057 17.8938 2.3629 18.2168 2.3629 18.1567C2.3629 18.0966 2.47555 17.7061 2.61825 17.293C2.98626 16.204 2.9412 16.2566 2.34788 17.5934C1.68696 19.0955 1.04857 21.6641 0.703092 24.2026C0.522842 25.5319 0.410185 26.5308 0.32757 27.3945C0.282508 27.9127 0.214914 28.6638 0.169851 29.0694C0.0496846 30.3311 0.0797263 32.2838 0.229935 32.8621L0.365123 33.3653L0.402675 32.802L0.432716 32.2388L0.477779 33.0649L0.515331 33.8835L1.36401 34.1088C1.82966 34.229 2.19016 34.3417 2.17514 34.3567C2.16012 34.3717 1.86721 34.3191 1.52924 34.229C1.19127 34.1389 0.890853 34.0863 0.868321 34.1088C0.84579 34.1389 0.868321 34.1539 0.920894 34.1539C0.973467 34.1539 1.15372 34.2515 1.32646 34.3642C2.27277 35.0026 4.36818 35.3631 7.02687 35.3481L8.40128 35.333L7.53758 35.2655C7.06443 35.2354 6.35094 35.1528 5.96039 35.0927C5.20935 34.9801 5.38209 34.9876 6.9743 35.1378C7.85302 35.2204 10.2639 35.2354 10.9999 35.1603L11.5106 35.1152L11.8636 35.8137C14.1618 40.4101 18.3977 45.1041 25.0669 50.4515L26.3287 51.4655L26.2836 51.9536C26.2611 52.224 26.2386 52.5995 26.2386 52.7948C26.2386 52.9976 26.2085 53.1553 26.171 53.1553C26.1334 53.1553 25.6077 52.6821 25.0068 52.1038C23.4747 50.6393 23.0466 50.3764 22.2355 50.3764C21.7849 50.3764 21.3793 50.5567 20.9137 50.9623L20.5757 51.2476L20.6658 51.7508C20.7785 52.4418 21.0488 53.0051 21.4995 53.4782L21.8825 53.8838L21.0714 53.7036L20.2603 53.5233L19.7195 53.0051C17.4438 50.8196 14.5749 50.2187 12.1565 51.4279C11.2102 51.9011 11.2628 51.8034 11.4806 52.6746C12.1189 55.2056 14.0116 56.8279 16.445 56.918C17.2636 56.9481 19.1112 56.8354 20.418 56.6777C22.4383 56.4374 22.9565 56.3923 23.2945 56.4599C23.7526 56.5425 23.8052 56.6176 23.685 56.9856C23.5498 57.4062 23.4447 57.4738 23.1668 57.3311C22.7838 57.1283 22.1303 57.1734 21.5971 57.4362C20.7109 57.8869 19.4041 59.2988 19.4041 59.817C19.4041 60.3803 19.727 60.5906 20.6733 60.6507C21.154 60.6807 21.4093 60.7408 21.6872 60.876C22.1529 61.1088 22.9565 61.1389 23.4071 60.9436C23.5648 60.876 23.67 60.8535 23.6475 60.891C23.6249 60.9286 23.4672 61.0037 23.302 61.0563L22.994 61.1464L23.5874 61.4243C23.9103 61.582 24.2333 61.7097 24.3009 61.7172C24.3685 61.7172 24.4436 61.7472 24.4661 61.7848C24.4886 61.8223 24.5863 61.8674 24.6764 61.8899C24.8341 61.9275 25.0369 61.9876 25.6602 62.1603C26.9596 62.5358 29.0775 62.9264 31.0077 63.1367C33.0881 63.3695 33.8016 63.407 36.7532 63.3995C40.1328 63.3995 41.2219 63.3319 44.1509 62.9189C44.4438 62.8813 44.8945 62.8438 45.1648 62.8362C45.6305 62.8212 45.623 62.8212 44.9395 62.7611C43.8956 62.671 43.8054 62.626 44.7518 62.671C46.4792 62.7536 48.154 62.4157 49.7086 61.6796C50.7826 61.1689 51.759 60.4554 52.6903 59.5166L53.1259 59.081L53.4563 59.3139C53.8544 59.5992 54.1849 59.6819 54.5904 59.5992C55.1687 59.4716 55.7621 58.8107 55.8672 58.1798L55.9198 57.8794L56.438 58.3675C57.4444 59.3214 58.8113 60.14 59.9003 60.4404C60.5162 60.6132 61.5826 60.6432 62.2285 60.508C63.1223 60.3202 64.0836 59.6969 64.6018 58.9609L64.7671 58.728L64.3465 58.6004C64.1061 58.5328 63.3551 58.1948 62.6716 57.8493L61.4249 57.2184H61.8831C63.31 57.2034 63.9484 56.2496 63.295 55.1155C62.8143 54.3044 61.4625 53.1027 60.7565 52.8849L60.3134 52.7422L60.794 52.6521C61.9882 52.4043 63.3175 51.8184 64.6995 50.9172C65.2778 50.5417 65.4806 50.3614 65.7059 50.0159C65.8636 49.7831 66.2616 49.2048 66.5921 48.7317C67.3281 47.6877 67.8463 46.7113 67.8463 46.3584C67.8463 45.9828 67.5835 45.7125 67.1629 45.6674C66.5245 45.5923 65.0525 46.073 62.942 47.0493L62.0483 47.4549L61.3874 47.3648C60.1857 47.192 59.2544 47.5075 58.3306 48.3787L57.8049 48.8744L57.9476 48.3636C58.2255 47.3497 58.2029 46.0579 57.8725 45.1191C57.7899 44.8713 57.4068 44.3005 56.7684 43.4668C56.2352 42.7684 55.7696 42.1976 55.747 42.1976C55.717 42.1901 55.4091 42.6557 55.0561 43.219C54.6054 43.9475 54.3125 44.323 54.1022 44.4808C53.5089 44.9088 52.9907 45.6899 52.833 46.3959C52.7203 46.8916 52.7353 47.53 52.8931 48.5364C52.9682 49.0321 53.0283 49.4451 53.0132 49.4602C52.9832 49.4977 51.9017 47.7703 51.6839 47.3347C51.4661 46.9141 51.5187 47.7929 51.1657 38.0593C51.0831 35.7236 50.9704 32.5993 50.9178 31.1122C50.8577 29.6251 50.8202 28.4009 50.8277 28.3934C50.8277 28.3934 51.8191 28.3484 53.0132 28.3033C56.8135 28.1531 59.292 27.8827 62.0408 27.3194C65.2627 26.6585 67.959 25.6521 70.152 24.2852C71.2335 23.6093 71.196 23.812 70.5125 22.6554C68.4171 19.0655 66.0589 15.4905 64.031 12.8243C58.1429 5.08104 52.7203 1.14557 47.2602 0.657394C46.4341 0.589802 46.1938 0.582291 45.4653 0.627354ZM2.23522 18.7876C2.21269 18.9002 2.17514 18.9753 2.1526 18.9603C2.13758 18.9378 2.14509 18.8326 2.17514 18.7275C2.19767 18.6148 2.23522 18.5397 2.25775 18.5547C2.27277 18.5773 2.26526 18.6824 2.23522 18.7876ZM2.04746 19.5386C1.99489 19.7714 1.94231 19.9442 1.92729 19.9292C1.90476 19.9066 1.9348 19.7038 1.98738 19.4785C2.03995 19.2457 2.09252 19.073 2.10754 19.088C2.13007 19.1105 2.10003 19.3133 2.04746 19.5386ZM1.83717 20.3798C1.79961 20.5375 1.76957 20.6051 1.76206 20.5225C1.75455 20.3422 1.83717 20.0193 1.87472 20.0568C1.89725 20.0719 1.87472 20.2221 1.83717 20.3798ZM1.73202 20.8755C1.70949 20.9356 1.68696 20.913 1.68696 20.8304C1.67945 20.7478 1.70198 20.7027 1.72451 20.7328C1.74704 20.7553 1.75455 20.8229 1.73202 20.8755ZM1.65692 21.2885C1.63439 21.3637 1.61936 21.3186 1.61936 21.1984C1.61936 21.0707 1.63439 21.0182 1.65692 21.0632C1.67194 21.1158 1.67194 21.221 1.65692 21.2885ZM1.58181 21.6265C1.55928 21.6866 1.53675 21.6641 1.53675 21.5815C1.52924 21.4988 1.55177 21.4538 1.5743 21.4838C1.59683 21.5063 1.60434 21.5739 1.58181 21.6265ZM1.50671 22.1147C1.48418 22.1898 1.46916 22.1297 1.46916 21.987C1.46916 21.8443 1.48418 21.7842 1.50671 21.8518C1.52173 21.9269 1.52173 22.0471 1.50671 22.1147ZM1.4316 22.5278C1.40907 22.5803 1.39405 22.5428 1.39405 22.4376C1.39405 22.3325 1.40907 22.2949 1.4316 22.34C1.44662 22.3926 1.44662 22.4827 1.4316 22.5278ZM1.3565 22.9408C1.33397 23.0159 1.31895 22.9709 1.31895 22.8507C1.31895 22.723 1.33397 22.6705 1.3565 22.7155C1.37152 22.7681 1.37152 22.8732 1.3565 22.9408ZM1.2814 23.429C1.25886 23.4816 1.24384 23.444 1.24384 23.3389C1.24384 23.2337 1.25886 23.1962 1.2814 23.2413C1.29642 23.2938 1.29642 23.384 1.2814 23.429ZM1.20629 23.9172C1.18376 23.9923 1.16874 23.9472 1.16874 23.8271C1.16874 23.6994 1.18376 23.6468 1.20629 23.6919C1.22131 23.7445 1.22131 23.8496 1.20629 23.9172ZM1.13119 24.518C1.10866 24.5931 1.09363 24.5481 1.09363 24.4279C1.09363 24.3002 1.10866 24.2477 1.13119 24.2927C1.14621 24.3453 1.14621 24.4504 1.13119 24.518ZM1.05608 25.0438C1.03355 25.1189 1.01853 25.0738 1.01853 24.9536C1.01853 24.826 1.03355 24.7734 1.05608 24.8184C1.0711 24.871 1.0711 24.9762 1.05608 25.0438ZM0.980978 25.7197C0.958447 25.7948 0.943426 25.7497 0.943426 25.6296C0.943426 25.5019 0.958447 25.4493 0.980978 25.4944C0.995999 25.547 0.995999 25.6521 0.980978 25.7197ZM0.905874 26.3956C0.883342 26.4707 0.868321 26.4257 0.868321 26.3055C0.868321 26.1778 0.883342 26.1253 0.905874 26.1703C0.920894 26.2229 0.920894 26.328 0.905874 26.3956ZM0.830769 27.2218C0.808238 27.2969 0.793217 27.2368 0.793217 27.0941C0.793217 26.9514 0.808238 26.8913 0.830769 26.9589C0.84579 27.034 0.84579 27.1542 0.830769 27.2218ZM25.5701 27.7475C25.097 28.2732 25.0594 28.3408 25.1871 28.4009C25.2697 28.4385 25.3523 28.5211 25.3749 28.5887C25.3974 28.6563 25.5551 28.7614 25.7278 28.8215C25.9682 28.9041 26.0883 29.0018 26.1785 29.197C26.3061 29.4449 26.3137 29.4449 26.3212 29.2721C26.3362 29.0994 26.3362 29.0919 26.3662 29.2496C26.3888 29.3547 26.4714 29.4374 26.584 29.4599C26.7643 29.4974 27.1023 29.5801 27.2525 29.6176C27.2975 29.6251 27.3952 29.6477 27.4778 29.6627C27.5604 29.6777 27.673 29.7152 27.7256 29.7453C27.7707 29.7828 27.8458 29.7904 27.8833 29.7678C27.9209 29.7453 27.9735 29.7828 27.996 29.8504C28.0411 29.9631 28.0636 29.9631 28.1162 29.873C28.1687 29.7828 28.2664 29.7828 28.6569 29.8504C29.0024 29.9105 29.1601 29.903 29.2352 29.8429C29.3253 29.7753 29.3329 29.7828 29.2803 29.873C29.2352 29.9481 29.2653 29.9406 29.3704 29.8504C29.4906 29.7453 29.5356 29.7378 29.5657 29.8129C29.5957 29.873 29.6107 29.8655 29.6107 29.7753C29.6182 29.6852 29.6783 29.6477 29.821 29.6477C29.9262 29.6477 30.0839 29.5951 30.159 29.52C30.2867 29.4073 30.2942 29.4073 30.2942 29.5275C30.2942 29.6477 30.3017 29.6477 30.4219 29.535C30.4895 29.4599 30.6171 29.4223 30.7148 29.4449C30.8124 29.4599 30.9025 29.4449 30.91 29.4073C30.9326 29.3472 31.1879 29.2721 31.4057 29.2571C31.4508 29.2496 31.4959 29.197 31.4959 29.1369C31.4959 29.0618 31.5559 29.0393 31.7212 29.0618C31.8488 29.0844 31.9465 29.0694 31.9465 29.0393C31.9465 28.9567 32.307 28.9116 32.3896 28.9867C32.4347 29.0168 32.4497 29.0243 32.4347 28.9942C32.4121 28.9642 32.5548 28.9041 32.7501 28.8515C33.0205 28.784 33.1256 28.784 33.1632 28.844C33.2082 28.9116 33.2233 28.9041 33.2233 28.829C33.2233 28.7689 33.2758 28.7464 33.3735 28.7689C33.4561 28.7915 33.5237 28.7689 33.5237 28.7314C33.5237 28.6863 33.5687 28.6938 33.6363 28.7464C33.7265 28.8215 33.7565 28.814 33.7865 28.7314C33.8241 28.6413 34.147 28.6337 35.7618 28.6488C38.5632 28.6863 38.6984 28.6938 38.7735 28.814C38.8185 28.8816 38.8711 28.7314 38.9387 28.3709C38.9913 28.063 39.0438 27.8527 39.0589 27.8902C39.0739 27.9353 38.9312 28.829 38.7509 29.8805C38.5632 30.9319 37.9548 34.4243 37.3915 37.6463C36.8283 40.8682 36.3251 43.7222 36.2875 43.9926C36.2424 44.263 36.1974 44.4958 36.1824 44.5108C36.1673 44.5258 35.9946 44.4207 35.7993 44.2705C34.1395 43.0613 32.6149 42.7609 31.1804 43.3617L30.7373 43.5495L30.3843 43.3016C26.8469 40.8908 23.2419 37.834 21.1164 35.4532C20.3654 34.612 19.0361 32.9598 19.0285 32.8621C19.0285 32.8396 19.2539 32.6894 19.5317 32.5317C21.1915 31.6079 22.9114 30.2635 24.7365 28.4685C25.4575 27.755 26.0658 27.1767 26.0733 27.1692C26.0883 27.1692 25.863 27.4321 25.5701 27.7475ZM0.755665 28.0104C0.740644 28.108 0.725623 28.0479 0.725623 27.8827C0.718113 27.7175 0.733134 27.6424 0.755665 27.71C0.770686 27.7851 0.770686 27.9203 0.755665 28.0104ZM0.680561 29.0618C0.66554 29.1595 0.650519 29.0994 0.650519 28.9342C0.643009 28.7689 0.658029 28.6938 0.680561 28.7614C0.695582 28.8365 0.695582 28.9717 0.680561 29.0618ZM0.605456 30.0382C0.590436 30.1358 0.575415 30.0757 0.575415 29.9105C0.567904 29.7453 0.582925 29.6702 0.605456 29.7378C0.620477 29.8129 0.620477 29.9481 0.605456 30.0382ZM0.530352 31.6905C0.515331 31.8257 0.50031 31.7356 0.50031 31.4877C0.50031 31.2399 0.515331 31.1272 0.530352 31.2399C0.545373 31.3525 0.545373 31.5553 0.530352 31.6905ZM2.52813 34.4318C2.47555 34.4468 2.38543 34.4468 2.34037 34.4318C2.28779 34.4093 2.32534 34.3942 2.43049 34.3942C2.53564 34.3942 2.57319 34.4093 2.52813 34.4318ZM2.85859 34.4994C2.83605 34.5219 2.76846 34.5294 2.71589 34.5069C2.6558 34.4844 2.67833 34.4618 2.76095 34.4618C2.84356 34.4543 2.88863 34.4769 2.85859 34.4994ZM3.20407 34.582C3.15149 34.597 3.06137 34.597 3.0163 34.582C2.96373 34.5595 3.00128 34.5445 3.10643 34.5445C3.21158 34.5445 3.24913 34.5595 3.20407 34.582ZM3.53452 34.6496C3.51199 34.6721 3.4444 34.6796 3.39183 34.6571C3.33174 34.6346 3.35427 34.612 3.43689 34.612C3.5195 34.6045 3.56457 34.6271 3.53452 34.6496ZM3.95511 34.7322C3.90254 34.7472 3.79739 34.7472 3.7298 34.7322C3.65469 34.7097 3.69975 34.6947 3.81992 34.6947C3.9476 34.6947 4.00017 34.7097 3.95511 34.7322ZM4.28557 34.7998C4.26304 34.8223 4.19544 34.8299 4.14287 34.8073C4.08279 34.7848 4.10532 34.7623 4.18793 34.7623C4.27055 34.7547 4.31561 34.7773 4.28557 34.7998ZM4.7437 34.8824C4.6686 34.8974 4.54843 34.8974 4.48084 34.8824C4.40573 34.8599 4.46582 34.8449 4.60852 34.8449C4.75121 34.8449 4.8113 34.8599 4.7437 34.8824ZM5.15678 34.9575C5.1042 34.9725 5.01408 34.9725 4.96902 34.9575C4.91644 34.935 4.954 34.92 5.05914 34.92C5.16429 34.92 5.20184 34.935 5.15678 34.9575ZM58.0828 54.6273C58.0828 54.6724 58.1804 54.9127 58.3081 55.1531C58.4283 55.3934 58.5334 55.6037 58.5334 55.6112C58.5334 55.6337 56.9712 54.6724 56.7459 54.5072C56.5807 54.3945 56.5807 54.3945 56.8961 53.989L57.2116 53.5909L57.6472 54.0641C57.88 54.3269 58.0753 54.5823 58.0828 54.6273ZM24.2107 60.4705C24.2107 60.493 24.0981 60.5756 23.9704 60.6657L23.7226 60.831L23.9479 60.6357C24.1807 60.4329 24.2107 60.4179 24.2107 60.4705ZM43.7604 62.5959C43.7078 62.6109 43.6177 62.6109 43.5726 62.5959C43.5201 62.5734 43.5576 62.5584 43.6628 62.5584C43.7679 62.5584 43.8054 62.5734 43.7604 62.5959Z" fill="white"/>
</svg>
