<svg width="70" height="70" viewBox="0 0 70 70" fill="none" xmlns="http://www.w3.org/2000/svg">
<circle cx="35" cy="35" r="35" fill="#D1EB7E" fill-opacity="0.3"/>
<circle cx="35" cy="35" r="31" fill="#7DA00C"/>
<path d="M41.4523 14.0172C38.0758 14.2444 34.8174 16.5802 30.6184 21.7836C30.2775 22.2062 29.9776 22.5562 29.9549 22.5562C29.9322 22.5562 29.8867 22.5834 29.8549 22.6198C29.8095 22.6652 29.8095 22.6743 29.8549 22.6516C29.8822 22.6334 29.9094 22.6334 29.9094 22.647C29.9094 22.6834 29.3187 23.4423 29.2914 23.4423C29.2778 23.4423 29.3959 23.2742 29.555 23.0651C29.8731 22.647 29.9185 22.6198 28.887 23.465C28.5189 23.765 28.178 24.0422 28.1235 24.0785C28.069 24.1149 27.9826 24.1922 27.9326 24.2467C27.8826 24.3058 27.819 24.3512 27.8008 24.3512C27.7463 24.3512 27.2282 24.8874 27.2282 24.942C27.2282 24.9647 27.2101 24.9829 27.1873 24.9738C27.1419 24.9647 26.9556 25.1601 26.9556 25.2237C26.9556 25.2465 26.9283 25.251 26.901 25.2328C26.8692 25.2146 26.8829 25.2465 26.9328 25.3101C27.1919 25.6327 27.1692 25.6146 26.7783 25.1965C23.6063 21.8018 21.375 20.3067 19.48 20.2976C19.1528 20.2976 18.8801 20.3203 18.6847 20.3703C17.3214 20.7248 16.3034 21.9654 15.5445 24.1922C15.4491 24.4648 15.3718 24.6602 15.3718 24.6239C15.3718 24.5875 15.44 24.3512 15.5263 24.1013C15.749 23.4423 15.7218 23.4741 15.3627 24.283C14.9628 25.1919 14.5766 26.7461 14.3675 28.2821C14.2585 29.0865 14.1903 29.6909 14.1403 30.2135C14.113 30.5271 14.0721 30.9815 14.0449 31.2269C13.9722 31.9904 13.9903 33.1719 14.0812 33.5219L14.163 33.8263L14.1857 33.4855L14.2039 33.1447L14.2312 33.6446L14.2539 34.1399L14.7674 34.2762C15.0492 34.3489 15.2673 34.4171 15.2582 34.4262C15.2491 34.4353 15.0719 34.4035 14.8674 34.3489C14.6629 34.2944 14.4811 34.2626 14.4675 34.2762C14.4539 34.2944 14.4675 34.3035 14.4993 34.3035C14.5311 34.3035 14.6402 34.3626 14.7447 34.4307C15.3173 34.817 16.5852 35.0351 18.1939 35.0261L19.0256 35.017L18.5029 34.9761C18.2166 34.9579 17.7849 34.9079 17.5486 34.8715C17.0942 34.8034 17.1987 34.8079 18.1621 34.8988C18.6938 34.9488 20.1526 34.9579 20.5979 34.9124L20.9069 34.8852L21.1205 35.3078C22.5111 38.089 25.0742 40.9293 29.1096 44.1649L29.8731 44.7784L29.8458 45.0738C29.8322 45.2374 29.8186 45.4646 29.8186 45.5828C29.8186 45.7054 29.8004 45.8009 29.7777 45.8009C29.7549 45.8009 29.4368 45.5146 29.0733 45.1647C28.1462 44.2785 27.8872 44.1194 27.3964 44.1194C27.1237 44.1194 26.8783 44.2285 26.5966 44.4739L26.3921 44.6466L26.4466 44.9511C26.5148 45.3692 26.6784 45.71 26.951 45.9963L27.1828 46.2417L26.692 46.1326L26.2012 46.0236L25.874 45.71C24.497 44.3876 22.7611 44.024 21.2978 44.7557C20.7252 45.042 20.757 44.9829 20.8888 45.51C21.275 47.0415 22.4202 48.0231 23.8926 48.0776C24.388 48.0958 25.5059 48.0277 26.2966 47.9322C27.5191 47.7868 27.8326 47.7595 28.0371 47.8004C28.3144 47.8504 28.3462 47.8959 28.2735 48.1185C28.1917 48.373 28.128 48.4139 27.9599 48.3276C27.7281 48.2049 27.3328 48.2321 27.0101 48.3912C26.4739 48.6639 25.6831 49.5182 25.6831 49.8318C25.6831 50.1726 25.8785 50.2999 26.4511 50.3362C26.742 50.3544 26.8965 50.3908 27.0646 50.4725C27.3464 50.6134 27.8326 50.6316 28.1053 50.5134C28.2007 50.4725 28.2644 50.4589 28.2507 50.4816C28.2371 50.5044 28.1417 50.5498 28.0417 50.5816L27.8554 50.6361L28.2144 50.8043C28.4098 50.8997 28.6052 50.977 28.6461 50.9815C28.687 50.9815 28.7324 50.9997 28.7461 51.0224C28.7597 51.0451 28.8188 51.0724 28.8733 51.086C28.9688 51.1088 29.0915 51.1451 29.4686 51.2496C30.2548 51.4769 31.5363 51.7132 32.7043 51.8404C33.9631 51.9813 34.3948 52.004 36.1807 51.9995C38.2257 51.9995 38.8847 51.9586 40.657 51.7086C40.8342 51.6859 41.1069 51.6632 41.2705 51.6586C41.5523 51.6496 41.5477 51.6496 41.1342 51.6132C40.5025 51.5587 40.448 51.5314 41.0206 51.5587C42.0658 51.6087 43.0792 51.4042 44.0199 50.9588C44.6697 50.6498 45.2605 50.2181 45.824 49.65L46.0876 49.3864L46.2875 49.5273C46.5284 49.7 46.7284 49.75 46.9738 49.7C47.3237 49.6227 47.6827 49.2228 47.7463 48.8411L47.7781 48.6593L48.0917 48.9547C48.7006 49.5319 49.5277 50.0272 50.1867 50.209C50.5593 50.3135 51.2046 50.3317 51.5954 50.2499C52.1362 50.1363 52.7179 49.7591 53.0315 49.3137L53.1314 49.1728L52.877 49.0956C52.7315 49.0547 52.2771 48.8502 51.8636 48.6411L51.1092 48.2594H51.3864C52.2498 48.2503 52.6361 47.6732 52.2407 46.987C51.9499 46.4962 51.1319 45.7691 50.7047 45.6373L50.4366 45.5509L50.7274 45.4964C51.45 45.3464 52.2544 44.992 53.0905 44.4466C53.4405 44.2194 53.5632 44.1104 53.6995 43.9013C53.7949 43.7604 54.0358 43.4105 54.2357 43.1242C54.6811 42.4925 54.9947 41.9018 54.9947 41.6882C54.9947 41.461 54.8356 41.2974 54.5811 41.2701C54.1948 41.2246 53.3041 41.5155 52.0272 42.1063L51.4864 42.3517L51.0865 42.2971C50.3593 42.1926 49.7958 42.3835 49.2369 42.9106L48.9188 43.2106L49.0051 42.9015C49.1733 42.288 49.1596 41.5064 48.9597 40.9384C48.9097 40.7884 48.6779 40.443 48.2916 39.9386C47.969 39.5159 47.6872 39.1706 47.6736 39.1706C47.6554 39.166 47.4691 39.4478 47.2555 39.7886C46.9828 40.2294 46.8056 40.4566 46.6784 40.5521C46.3194 40.8111 46.0058 41.2837 45.9104 41.7109C45.8422 42.0108 45.8513 42.3971 45.9467 43.0061C45.9922 43.306 46.0285 43.5559 46.0194 43.565C46.0012 43.5877 45.3469 42.5425 45.2151 42.279C45.0833 42.0245 45.1151 42.5562 44.9015 36.6666C44.8515 35.2533 44.7833 33.3628 44.7515 32.463C44.7152 31.5632 44.6925 30.8225 44.697 30.8179C44.697 30.8179 45.2969 30.7907 46.0194 30.7634C48.3189 30.6725 49.8186 30.5089 51.4818 30.1681C53.4314 29.7682 55.0628 29.1592 56.3898 28.3321C57.0442 27.9231 57.0215 28.0458 56.6079 27.346C55.34 25.1737 53.9131 23.0106 52.6861 21.3973C49.1233 16.712 45.8422 14.3308 42.5384 14.0354C42.0385 13.9945 41.8931 13.9899 41.4523 14.0172ZM15.2946 25.0056C15.2809 25.0738 15.2582 25.1192 15.2446 25.1101C15.2355 25.0965 15.24 25.0329 15.2582 24.9692C15.2719 24.9011 15.2946 24.8556 15.3082 24.8647C15.3173 24.8784 15.3128 24.942 15.2946 25.0056ZM15.181 25.46C15.1492 25.6009 15.1173 25.7054 15.1083 25.6964C15.0946 25.6827 15.1128 25.56 15.1446 25.4237C15.1764 25.2828 15.2082 25.1783 15.2173 25.1874C15.231 25.201 15.2128 25.3237 15.181 25.46ZM15.0537 25.969C15.031 26.0645 15.0128 26.1054 15.0083 26.0554C15.0037 25.9463 15.0537 25.7509 15.0764 25.7736C15.0901 25.7827 15.0764 25.8736 15.0537 25.969ZM14.9901 26.269C14.9765 26.3053 14.9628 26.2917 14.9628 26.2417C14.9583 26.1917 14.9719 26.1644 14.9856 26.1826C14.9992 26.1962 15.0037 26.2371 14.9901 26.269ZM14.9447 26.5189C14.931 26.5643 14.9219 26.5371 14.9219 26.4644C14.9219 26.3871 14.931 26.3553 14.9447 26.3826C14.9538 26.4144 14.9538 26.478 14.9447 26.5189ZM14.8992 26.7234C14.8856 26.7598 14.872 26.7461 14.872 26.6961C14.8674 26.6461 14.881 26.6189 14.8947 26.6371C14.9083 26.6507 14.9129 26.6916 14.8992 26.7234ZM14.8538 27.0188C14.8401 27.0642 14.8311 27.0279 14.8311 26.9415C14.8311 26.8552 14.8401 26.8188 14.8538 26.8597C14.8629 26.9052 14.8629 26.9779 14.8538 27.0188ZM14.8083 27.2687C14.7947 27.3005 14.7856 27.2778 14.7856 27.2142C14.7856 27.1506 14.7947 27.1278 14.8083 27.1551C14.8174 27.1869 14.8174 27.2415 14.8083 27.2687ZM14.7629 27.5187C14.7493 27.5641 14.7402 27.5368 14.7402 27.4641C14.7402 27.3869 14.7493 27.3551 14.7629 27.3823C14.772 27.4141 14.772 27.4778 14.7629 27.5187ZM14.7174 27.8141C14.7038 27.8459 14.6947 27.8231 14.6947 27.7595C14.6947 27.6959 14.7038 27.6732 14.7174 27.7004C14.7265 27.7323 14.7265 27.7868 14.7174 27.8141ZM14.672 28.1094C14.6584 28.1549 14.6493 28.1276 14.6493 28.0549C14.6493 27.9777 14.6584 27.9458 14.672 27.9731C14.6811 28.0049 14.6811 28.0685 14.672 28.1094ZM14.6266 28.473C14.6129 28.5184 14.6038 28.4912 14.6038 28.4185C14.6038 28.3412 14.6129 28.3094 14.6266 28.3367C14.6356 28.3685 14.6356 28.4321 14.6266 28.473ZM14.5811 28.7911C14.5675 28.8366 14.5584 28.8093 14.5584 28.7366C14.5584 28.6593 14.5675 28.6275 14.5811 28.6548C14.5902 28.6866 14.5902 28.7502 14.5811 28.7911ZM14.5357 29.2001C14.522 29.2456 14.5129 29.2183 14.5129 29.1456C14.5129 29.0683 14.522 29.0365 14.5357 29.0638C14.5448 29.0956 14.5448 29.1592 14.5357 29.2001ZM14.4902 29.6091C14.4766 29.6545 14.4675 29.6273 14.4675 29.5546C14.4675 29.4773 14.4766 29.4455 14.4902 29.4728C14.4993 29.5046 14.4993 29.5682 14.4902 29.6091ZM14.4448 30.109C14.4311 30.1544 14.4221 30.1181 14.4221 30.0317C14.4221 29.9454 14.4311 29.909 14.4448 29.9499C14.4539 29.9954 14.4539 30.0681 14.4448 30.109ZM29.4141 30.4271C29.1278 30.7452 29.1051 30.7861 29.1823 30.8225C29.2323 30.8452 29.2823 30.8952 29.2959 30.9361C29.3096 30.977 29.405 31.0406 29.5095 31.077C29.655 31.1269 29.7277 31.186 29.7822 31.3042C29.8595 31.4541 29.864 31.4541 29.8685 31.3496C29.8776 31.2451 29.8776 31.2406 29.8958 31.336C29.9094 31.3996 29.9594 31.4496 30.0276 31.4632C30.1367 31.486 30.3412 31.5359 30.4321 31.5587C30.4593 31.5632 30.5184 31.5768 30.5684 31.5859C30.6184 31.595 30.6865 31.6177 30.7184 31.6359C30.7456 31.6586 30.7911 31.6632 30.8138 31.6496C30.8365 31.6359 30.8683 31.6586 30.882 31.6995C30.9092 31.7677 30.9229 31.7677 30.9547 31.7132C30.9865 31.6586 31.0456 31.6586 31.2819 31.6995C31.4909 31.7359 31.5863 31.7313 31.6318 31.695C31.6863 31.6541 31.6909 31.6586 31.659 31.7132C31.6318 31.7586 31.65 31.7541 31.7136 31.6995C31.7863 31.6359 31.8136 31.6314 31.8317 31.6768C31.8499 31.7132 31.859 31.7086 31.859 31.6541C31.8635 31.5996 31.8999 31.5768 31.9862 31.5768C32.0499 31.5768 32.1453 31.545 32.1907 31.4996C32.268 31.4314 32.2725 31.4314 32.2725 31.5041C32.2725 31.5768 32.2771 31.5768 32.3498 31.5087C32.3907 31.4632 32.468 31.4405 32.527 31.4541C32.5861 31.4632 32.6406 31.4541 32.6452 31.4314C32.6588 31.3951 32.8133 31.3496 32.9451 31.3405C32.9724 31.336 32.9997 31.3042 32.9997 31.2678C32.9997 31.2224 33.036 31.2087 33.136 31.2224C33.2132 31.236 33.2723 31.2269 33.2723 31.2087C33.2723 31.1588 33.4905 31.1315 33.5404 31.1769C33.5677 31.1951 33.5768 31.1997 33.5677 31.1815C33.5541 31.1633 33.6404 31.1269 33.7586 31.0951C33.9222 31.0542 33.9858 31.0542 34.0085 31.0906C34.0358 31.1315 34.0449 31.1269 34.0449 31.0815C34.0449 31.0451 34.0767 31.0315 34.1358 31.0451C34.1857 31.0588 34.2266 31.0451 34.2266 31.0224C34.2266 30.9952 34.2539 30.9997 34.2948 31.0315C34.3493 31.077 34.3675 31.0724 34.3857 31.0224C34.4084 30.9679 34.6038 30.9633 35.5809 30.9724C37.276 30.9952 37.3578 30.9997 37.4032 31.0724C37.4305 31.1133 37.4623 31.0224 37.5032 30.8043C37.535 30.618 37.5668 30.4907 37.5759 30.5134C37.585 30.5407 37.4986 31.0815 37.3896 31.7177C37.276 32.3539 36.9079 34.4671 36.567 36.4166C36.2262 38.3662 35.9217 40.0931 35.899 40.2567C35.8717 40.4203 35.8445 40.5612 35.8354 40.5703C35.8263 40.5793 35.7218 40.5157 35.6036 40.4248C34.5993 39.6932 33.6768 39.5114 32.8088 39.875L32.5407 39.9886L32.3271 39.8386C30.1867 38.3798 28.0053 36.5303 26.7193 35.0897C26.2648 34.5807 25.4605 33.5809 25.4559 33.5219C25.4559 33.5082 25.5922 33.4173 25.7604 33.3219C26.7647 32.7629 27.8054 31.9495 28.9097 30.8634C29.3459 30.4316 29.714 30.0817 29.7186 30.0772C29.7277 30.0772 29.5913 30.2362 29.4141 30.4271ZM14.3993 30.5862C14.3902 30.6452 14.3812 30.6089 14.3812 30.5089C14.3766 30.4089 14.3857 30.3635 14.3993 30.4044C14.4084 30.4498 14.4084 30.5316 14.3993 30.5862ZM14.3539 31.2224C14.3448 31.2815 14.3357 31.2451 14.3357 31.1451C14.3312 31.0451 14.3403 30.9997 14.3539 31.0406C14.363 31.086 14.363 31.1678 14.3539 31.2224ZM14.3084 31.8131C14.2994 31.8722 14.2903 31.8359 14.2903 31.7359C14.2857 31.6359 14.2948 31.5905 14.3084 31.6314C14.3175 31.6768 14.3175 31.7586 14.3084 31.8131ZM14.263 32.8129C14.2539 32.8947 14.2448 32.8402 14.2448 32.6902C14.2448 32.5403 14.2539 32.4721 14.263 32.5403C14.2721 32.6084 14.2721 32.7311 14.263 32.8129ZM15.4718 34.4716C15.44 34.4807 15.3855 34.4807 15.3582 34.4716C15.3264 34.458 15.3491 34.4489 15.4127 34.4489C15.4764 34.4489 15.4991 34.458 15.4718 34.4716ZM15.6718 34.5125C15.6581 34.5262 15.6172 34.5307 15.5854 34.5171C15.5491 34.5034 15.5627 34.4898 15.6127 34.4898C15.6627 34.4853 15.6899 34.4989 15.6718 34.5125ZM15.8808 34.5625C15.849 34.5716 15.7945 34.5716 15.7672 34.5625C15.7354 34.5489 15.7581 34.5398 15.8217 34.5398C15.8854 34.5398 15.9081 34.5489 15.8808 34.5625ZM16.0808 34.6034C16.0671 34.6171 16.0262 34.6216 15.9944 34.608C15.9581 34.5943 15.9717 34.5807 16.0217 34.5807C16.0717 34.5762 16.0989 34.5898 16.0808 34.6034ZM16.3353 34.6534C16.3034 34.6625 16.2398 34.6625 16.1989 34.6534C16.1535 34.6398 16.1807 34.6307 16.2535 34.6307C16.3307 34.6307 16.3625 34.6398 16.3353 34.6534ZM16.5352 34.6943C16.5216 34.7079 16.4807 34.7125 16.4489 34.6989C16.4125 34.6852 16.4261 34.6716 16.4761 34.6716C16.5261 34.667 16.5534 34.6807 16.5352 34.6943ZM16.8124 34.7443C16.767 34.7534 16.6943 34.7534 16.6534 34.7443C16.6079 34.7307 16.6443 34.7216 16.7306 34.7216C16.817 34.7216 16.8533 34.7307 16.8124 34.7443ZM17.0624 34.7897C17.0306 34.7988 16.976 34.7988 16.9488 34.7897C16.9169 34.7761 16.9397 34.767 17.0033 34.767C17.0669 34.767 17.0896 34.7761 17.0624 34.7897ZM49.0869 46.6916C49.0869 46.7189 49.146 46.8643 49.2232 47.0097C49.296 47.1551 49.3596 47.2824 49.3596 47.2869C49.3596 47.3005 48.4143 46.7189 48.278 46.6189C48.178 46.5507 48.178 46.5507 48.3689 46.3053L48.5598 46.0645L48.8233 46.3508C48.9642 46.5098 49.0824 46.6643 49.0869 46.6916ZM28.5916 50.2272C28.5916 50.2408 28.5234 50.2908 28.4461 50.3453L28.2962 50.4453L28.4325 50.3271C28.5734 50.2044 28.5916 50.1953 28.5916 50.2272ZM40.4207 51.5132C40.3889 51.5223 40.3344 51.5223 40.3071 51.5132C40.2753 51.4996 40.298 51.4905 40.3616 51.4905C40.4252 51.4905 40.448 51.4996 40.4207 51.5132Z" fill="white"/>
<path d="M15.8028 27.657C15.7619 27.7751 15.771 27.8024 15.8255 27.7115C15.8528 27.6661 15.8664 27.6161 15.8528 27.607C15.8437 27.5934 15.8209 27.6161 15.8028 27.657Z" fill="white"/>
<path d="M48.8057 35.0738C48.8375 35.0874 48.8784 35.0829 48.892 35.0693C48.9102 35.0556 48.883 35.042 48.833 35.0465C48.783 35.0465 48.7693 35.0602 48.8057 35.0738Z" fill="white"/>
<path d="M48.4869 35.1182C48.5142 35.1273 48.5687 35.1273 48.6005 35.1182C48.6278 35.1046 48.6051 35.0955 48.5415 35.0955C48.4778 35.0955 48.4551 35.1046 48.4869 35.1182Z" fill="white"/>
<path d="M47.8058 35.1631C47.8603 35.1722 47.9421 35.1722 47.9876 35.1631C48.0285 35.1495 47.983 35.1404 47.8831 35.1449C47.7831 35.1449 47.7467 35.154 47.8058 35.1631Z" fill="white"/>
<path d="M47.1915 35.21C47.2597 35.2191 47.3687 35.2191 47.4414 35.21C47.5096 35.2009 47.4505 35.1918 47.3142 35.1918C47.1779 35.1918 47.1188 35.2009 47.1915 35.21Z" fill="white"/>
<path d="M45.1472 35.2538C44.9155 35.2629 44.7246 35.2856 44.7246 35.3038C44.7292 35.4719 44.9109 35.481 45.9289 35.3583C46.7878 35.2492 46.8241 35.2356 46.1788 35.2356C45.8425 35.2401 45.3745 35.2492 45.1472 35.2538Z" fill="white"/>
</svg>
