<svg width="40" height="40" viewBox="0 0 40 40" fill="none" xmlns="http://www.w3.org/2000/svg">
<g clip-path="url(#clip0_212_7290)">
<path d="M26.8181 8.68547H25.6885C25.8877 8.33828 26.0024 7.93656 26.0024 7.50836V3.91375C26.0024 2.60539 24.938 1.54102 23.6297 1.54102H2.37273C1.06438 1.54148 0 2.60586 0 3.91414V7.50875C0 8.81711 1.06438 9.88148 2.37273 9.88148H3.50219C3.30297 10.2287 3.18828 10.6304 3.18828 11.0586V14.6532C3.18828 15.0815 3.30289 15.4831 3.50219 15.8303H2.37273C1.06438 15.8302 0 16.8946 0 18.2029V21.7975C0 22.832 0.665859 23.7136 1.59125 24.0373C1.34156 24.413 1.19562 24.8633 1.19562 25.3473V28.9419C1.19562 29.4259 1.34156 29.8762 1.59125 30.2518C0.665859 30.5755 0 31.4571 0 32.4916V36.0862C0 37.3945 1.06438 38.4589 2.37273 38.4589H20.6008C20.931 38.4589 21.1986 38.1912 21.1986 37.8611C21.1986 37.5309 20.9309 37.2633 20.6008 37.2633H2.37273C1.72359 37.2633 1.19562 36.7352 1.19562 36.0862V32.4916C1.19562 31.8426 1.72367 31.3145 2.37273 31.3145H3.56836H6.74148H13.9324C14.2627 31.3145 14.5302 31.0469 14.5302 30.7167C14.5302 30.3866 14.2627 30.1189 13.9324 30.1189H6.74141H3.56836C2.91922 30.1189 2.39125 29.5909 2.39125 28.9418V25.3472C2.39125 24.6981 2.9193 24.1701 3.56836 24.1701H12.8431C13.1734 24.1701 13.4409 23.9024 13.4409 23.5723C13.4409 23.2421 13.1734 22.9745 12.8431 22.9745H2.37273C1.72359 22.9745 1.19562 22.4464 1.19562 21.7973V18.2027C1.19562 17.5537 1.72367 17.0256 2.37273 17.0256H5.56102H10.3459H16.2305C16.5608 17.0256 16.8284 16.758 16.8284 16.4278C16.8284 16.0977 16.5608 15.83 16.2305 15.83H10.3459H5.56102C4.91187 15.83 4.38391 15.302 4.38391 14.6529V11.0583C4.38391 10.4092 4.91195 9.88117 5.56102 9.88117H23.6298H26.8181C27.4673 9.88117 27.9952 10.4092 27.9952 11.0583V11.5041C27.9952 11.8343 28.2628 12.102 28.593 12.102C28.9233 12.102 29.1909 11.8343 29.1909 11.5041V11.0583C29.1909 9.74984 28.1265 8.68547 26.8181 8.68547ZM24.8069 7.50875C24.8069 8.15781 24.2788 8.68586 23.6298 8.68586H5.56102H2.37273C1.72359 8.68578 1.19562 8.15773 1.19562 7.50875V3.91414C1.19562 3.26508 1.72367 2.73703 2.37273 2.73703H23.6298C24.2789 2.73703 24.8069 3.26508 24.8069 3.91414V7.50875Z" fill="#688800"/>
<path d="M34.0888 14.5583C33.8123 14.378 33.4419 14.4561 33.2616 14.7327C33.0813 15.0093 33.1595 15.3797 33.436 15.5599C36.7979 17.7508 38.8049 21.4511 38.8049 25.4582C38.8049 31.9678 33.5089 37.2638 26.9993 37.2638C20.4896 37.2638 15.1936 31.9678 15.1936 25.4582C15.1936 18.9486 20.4896 13.6526 26.9993 13.6526C28.7084 13.6526 30.3569 14.0096 31.8986 14.7138C32.1991 14.8511 32.5536 14.7187 32.6907 14.4184C32.8279 14.1181 32.6956 13.7635 32.3953 13.6263C30.6966 12.8504 28.8811 12.457 26.9993 12.457C19.8305 12.457 13.998 18.2894 13.998 25.4582C13.998 32.627 19.8305 38.4594 26.9993 38.4594C34.1681 38.4594 40.0005 32.6271 40.0005 25.4583C40.0005 21.0454 37.7906 16.9706 34.0888 14.5583Z" fill="#688800"/>
<path d="M33.6229 18.8338C31.8534 17.0643 29.5008 16.0898 26.9985 16.0898C24.4961 16.0898 22.1435 17.0644 20.374 18.8338C18.0086 21.1991 17.0817 24.6767 17.9549 27.9095C18.041 28.2283 18.3689 28.4169 18.6878 28.3308C19.0065 28.2447 19.1951 27.9166 19.109 27.5978C18.3471 24.777 19.1558 21.7428 21.2195 19.6792C22.7631 18.1356 24.8155 17.2854 26.9985 17.2854C29.1816 17.2854 31.234 18.1355 32.7776 19.6792C35.9642 22.8659 35.9642 28.0508 32.7776 31.2374C29.591 34.424 24.4061 34.424 21.2195 31.2374C20.6467 30.6646 20.1647 30.0157 19.7868 29.3088C19.6313 29.0176 19.2692 28.9076 18.9779 29.0634C18.6867 29.2189 18.5768 29.5812 18.7325 29.8723C19.1659 30.6831 19.7182 31.4268 20.3741 32.0827C22.2005 33.9091 24.5996 34.8223 26.9986 34.8223C29.3977 34.8223 31.7967 33.9092 33.6231 32.0827C37.2757 28.4301 37.2757 22.4866 33.6229 18.8338Z" fill="#688800"/>
<path d="M27.5969 24.9087V21.6166C28.4685 21.8197 29.1063 22.4545 29.1063 23.2047C29.1063 23.5348 29.3739 23.8025 29.7041 23.8025C30.0343 23.8025 30.3019 23.5348 30.3019 23.2047C30.3019 21.8084 29.1336 20.6442 27.597 20.4005V20.049C27.597 19.7188 27.3294 19.4512 26.9992 19.4512C26.6689 19.4512 26.4014 19.7188 26.4014 20.049V20.4005C24.8647 20.6443 23.6964 21.8085 23.6964 23.2047C23.6964 24.6009 24.8647 25.7651 26.4014 26.0088V29.3008C25.5297 29.0978 24.8919 28.463 24.8919 27.7128C24.8919 27.3826 24.6243 27.115 24.2941 27.115C23.9639 27.115 23.6963 27.3826 23.6963 27.7128C23.6963 29.109 24.8647 30.2733 26.4013 30.5169V30.8685C26.4013 31.1987 26.6689 31.4663 26.9991 31.4663C27.3293 31.4663 27.5969 31.1987 27.5969 30.8685V30.5169C29.1336 30.2733 30.3018 29.109 30.3018 27.7128C30.3018 26.3166 29.1336 25.1523 27.5969 24.9087ZM26.4014 24.7927C25.5297 24.5897 24.8919 23.9548 24.8919 23.2047C24.8919 22.4545 25.5297 21.8198 26.4014 21.6166V24.7927ZM27.5968 29.3008V26.1248C28.4684 26.3279 29.1062 26.9628 29.1062 27.7129C29.1062 28.4629 28.4684 29.0977 27.5968 29.3008Z" fill="#688800"/>
</g>
<defs>
<clipPath id="clip0_212_7290">
<rect width="40" height="40" fill="white"/>
</clipPath>
</defs>
</svg>
