<svg width="40" height="40" viewBox="0 0 40 40" fill="none" xmlns="http://www.w3.org/2000/svg">
<g clip-path="url(#clip0_212_7270)">
<path d="M38.1656 14.2034H34.2307L32.2416 6.40274C31.9916 5.42259 30.9908 4.82876 30.0109 5.07853L25.4758 6.23493C25.1699 6.3129 24.9852 6.62415 25.0631 6.93001C25.1412 7.23587 25.4524 7.42048 25.7582 7.34266L30.2933 6.18626C30.6629 6.09227 31.0397 6.31595 31.1339 6.68524L31.3542 7.54938L1.38513 15.1912L1.16482 14.3272C1.1192 14.1483 1.14599 13.9623 1.24021 13.8035C1.33451 13.6448 1.48498 13.5322 1.66388 13.4866L22.2778 8.23008C22.5837 8.15211 22.7685 7.84087 22.6905 7.53501C22.6124 7.22915 22.3014 7.04454 21.9954 7.12235L1.38138 12.3788C0.401229 12.6287 -0.192832 13.6294 0.057089 14.6095L4.28427 31.187C4.4956 32.0157 5.24349 32.5684 6.062 32.5683C6.21153 32.5683 6.36356 32.5498 6.51497 32.5112L6.78559 32.4422V33.1456C6.78559 34.1571 7.60848 34.98 8.61996 34.98H38.1656C39.1771 34.98 40 34.1571 40 33.1456V16.0377C40 15.0262 39.1771 14.2034 38.1656 14.2034ZM6.78567 31.2625L6.23262 31.4036C5.86333 31.4978 5.48622 31.2739 5.392 30.9046L2.80451 20.7574L6.78567 19.7422V31.2625ZM6.78567 16.0376V18.5626L2.52208 19.6497L1.66763 16.2988L7.19004 14.8906C6.93739 15.2051 6.78567 15.6039 6.78567 16.0376ZM33.051 14.2033H28.5075L32.7736 13.1155L33.051 14.2033ZM31.6367 8.65688L32.4912 12.0078L23.8813 14.2034H9.88559L31.6367 8.65688ZM38.1656 33.8368H8.62004C8.23887 33.8368 7.92871 33.5268 7.92871 33.1456V31.7067V16.0377C7.92871 15.6566 8.23879 15.3465 8.62004 15.3465H38.1656C38.5468 15.3465 38.8569 15.6566 38.8569 16.0377V33.1456C38.8569 33.5268 38.5468 33.8368 38.1656 33.8368Z" fill="#688800"/>
<path d="M22.7606 28.2734H10.3069C9.99129 28.2734 9.73535 28.5292 9.73535 28.8448C9.73535 29.1603 9.99129 29.4161 10.3069 29.4161H22.7606C23.0762 29.4161 23.3322 29.1603 23.3322 28.8448C23.3322 28.5293 23.0763 28.2734 22.7606 28.2734Z" fill="#688800"/>
<path d="M32.2859 18.2227C31.465 18.2227 30.7053 18.4877 30.0861 18.9355C29.448 18.4733 28.6826 18.2227 27.8839 18.2227C25.8091 18.2227 24.1211 19.9106 24.1211 21.9855C24.1212 24.0602 25.8092 25.7482 27.884 25.7482C28.6827 25.7482 29.448 25.4976 30.0861 25.0353C30.7053 25.4832 31.4651 25.7482 32.2859 25.7482C34.3607 25.7482 36.0487 24.0602 36.0487 21.9855C36.0487 19.9106 34.3607 18.2227 32.2859 18.2227ZM28.5277 22.1638C28.5284 22.1785 28.5294 22.1931 28.5303 22.2078C28.533 22.2557 28.5367 22.3034 28.5412 22.351C28.5423 22.3621 28.5434 22.3732 28.5445 22.3843C28.6142 23.0527 28.858 23.6806 29.2558 24.2169C28.8464 24.4696 28.3741 24.605 27.884 24.605C26.4394 24.605 25.2643 23.4298 25.2643 21.9854C25.2644 20.541 26.4395 19.3658 27.884 19.3658C28.3741 19.3658 28.8464 19.5012 29.2558 19.7538C28.8581 20.2902 28.6142 20.918 28.5445 21.5865C28.5434 21.5976 28.5423 21.6086 28.5412 21.6197C28.5367 21.6673 28.5331 21.715 28.5303 21.7629C28.5294 21.7776 28.5284 21.7921 28.5277 21.8068C28.525 21.8661 28.5232 21.9255 28.5232 21.9853C28.5232 22.0451 28.525 22.1045 28.5277 22.1638ZM32.2861 24.6051C31.5708 24.6051 30.9219 24.3167 30.4487 23.8505C30.439 23.8408 30.4294 23.8312 30.4198 23.8214C30.398 23.7992 30.3763 23.7768 30.3553 23.7538C30.3495 23.7475 30.3438 23.7411 30.338 23.7347C30.3133 23.7072 30.289 23.6794 30.2655 23.6508C30.2653 23.6507 30.2652 23.6505 30.2651 23.6504C29.8912 23.1974 29.6664 22.6171 29.6664 21.9853C29.6663 21.3536 29.8912 20.7733 30.2651 20.3202C30.2652 20.3202 30.2653 20.3201 30.2654 20.3199C30.289 20.2913 30.3134 20.2635 30.3382 20.2359C30.3439 20.2296 30.3495 20.2233 30.3553 20.217C30.3764 20.194 30.398 20.1715 30.4199 20.1493C30.4294 20.1396 30.439 20.13 30.4487 20.1205C30.9219 19.6542 31.5708 19.3658 32.2861 19.3658C33.7305 19.3658 34.9057 20.5409 34.9057 21.9855C34.9057 23.4299 33.7305 24.6051 32.2861 24.6051Z" fill="#688800"/>
<path d="M14.3809 18.5938H11.8741C10.6953 18.5938 9.73633 19.5527 9.73633 20.7316V23.2383C9.73625 24.4171 10.6953 25.3761 11.8741 25.3761H14.3809C15.5596 25.3761 16.5187 24.4171 16.5187 23.2383V20.7316C16.5187 19.5528 15.5597 18.5938 14.3809 18.5938ZM15.3755 22.292H14.1562C13.8405 22.292 13.5846 22.5478 13.5846 22.8635C13.5846 23.1792 13.8405 23.4351 14.1562 23.4351H15.3558C15.2641 23.8896 14.8619 24.233 14.3808 24.233H11.8741C11.3929 24.233 10.9906 23.8897 10.8991 23.4351H12.0987C12.4143 23.4351 12.6702 23.1792 12.6702 22.8635C12.6702 22.5478 12.4144 22.292 12.0987 22.292H10.8794V21.7966H12.0987C12.4143 21.7966 12.6702 21.5408 12.6702 21.2251C12.6702 20.9095 12.4144 20.6535 12.0987 20.6535H10.8833C10.9233 20.1415 11.3519 19.7368 11.8741 19.7368H14.3808C14.903 19.7368 15.3315 20.1415 15.3716 20.6535H14.1562C13.8405 20.6535 13.5846 20.9094 13.5846 21.2251C13.5846 21.5407 13.8405 21.7966 14.1562 21.7966H15.3755V22.292Z" fill="#688800"/>
<path d="M36.1805 30.7871H16.2796C15.9639 30.7871 15.708 31.0429 15.708 31.3584C15.708 31.674 15.9639 31.9297 16.2796 31.9297H36.1805C36.4962 31.9297 36.7521 31.674 36.7521 31.3584C36.7521 31.0429 36.4963 30.7871 36.1805 30.7871Z" fill="#688800"/>
<path d="M12.637 30.7871H10.3079C9.99227 30.7871 9.73633 31.0429 9.73633 31.3584C9.73633 31.674 9.99219 31.9297 10.3079 31.9297H12.637C12.9527 31.9297 13.2086 31.674 13.2086 31.3584C13.2086 31.0429 12.9527 30.7871 12.637 30.7871Z" fill="#688800"/>
</g>
<defs>
<clipPath id="clip0_212_7270">
<rect width="40" height="40" fill="white"/>
</clipPath>
</defs>
</svg>
