<svg width="53" height="53" viewBox="0 0 53 53" fill="none" xmlns="http://www.w3.org/2000/svg">
<g filter="url(#filter0_d_319_27)">
<path d="M42.4099 6.59022C38.1602 2.34035 32.5099 0 26.5 0C20.4901 0 14.8398 2.34035 10.5901 6.59022C6.34035 10.8398 4 16.4901 4 22.5C4 28.5099 6.34035 34.1602 10.5901 38.4099C14.8398 42.6596 20.4901 45 26.5 45C32.5099 45 38.1602 42.6596 42.4099 38.4098C46.6596 34.1602 49 28.5099 49 22.5C49 16.4901 46.6596 10.8398 42.4099 6.59022ZM26.5 43.579C14.877 43.579 5.42102 34.123 5.42102 22.5C5.42102 10.877 14.877 1.42102 26.5 1.42102C38.123 1.42102 47.579 10.877 47.579 22.5C47.579 34.123 38.123 43.579 26.5 43.579Z" fill="#688800"/>
<path d="M38.3385 32.8708L37.5692 28.8268C37.5097 28.5136 37.2595 28.2672 36.9377 28.2047L30.888 27.0306C30.6251 26.9797 30.3533 27.0594 30.1635 27.2435L27.6796 29.6542C23.493 27.8406 21.1795 25.5909 19.1417 21.3538L21.6181 18.9505C21.8076 18.7666 21.8899 18.5027 21.8375 18.2474L20.6276 12.3762C20.5632 12.0638 20.3094 11.8211 19.9866 11.7633L15.8197 11.0169C15.7127 10.9975 15.6027 10.9999 15.4965 11.0233C14.4061 11.2637 13.4111 11.797 12.6191 12.5657C11.2482 13.8963 10.7245 15.8403 11.105 18.1874C11.2783 19.256 11.5358 20.3631 11.8704 21.4779C11.9945 21.8908 12.4404 22.1273 12.8649 22.0076C13.2903 21.8873 13.5346 21.4553 13.4108 21.0425C13.095 19.9908 12.8525 18.9488 12.6899 17.9453C12.3881 16.0839 12.746 14.6443 13.7537 13.6664C14.294 13.1419 14.9636 12.7677 15.6983 12.5781L19.1613 13.1986L20.1805 18.1442L17.6139 20.635C17.3789 20.8632 17.3132 21.2082 17.4486 21.5028C19.7819 26.5738 22.5191 29.2281 27.5477 31.296C27.8489 31.4197 28.1969 31.3539 28.4279 31.1297L30.9944 28.6388L36.0904 29.6279L36.7298 32.9887C36.5345 33.7016 36.1488 34.3515 35.6086 34.8759C34.6006 35.8537 33.1169 36.2011 31.1991 35.9081C27.3649 35.3226 22.0464 33.5161 18.6188 30.2028L18.5694 30.1549C16.9926 28.6186 15.5871 26.4996 14.5052 24.0269C14.3319 23.6311 13.8611 23.4468 13.4534 23.6146C13.0456 23.7827 12.8554 24.2397 13.0286 24.6354C14.19 27.2892 15.713 29.5778 17.4359 31.2568L17.4855 31.3047C21.1862 34.8819 26.8671 36.8226 30.9497 37.446C31.4621 37.5242 31.9555 37.5631 32.4286 37.5631C34.1884 37.5631 35.6618 37.0252 36.7425 35.9765C37.5345 35.2079 38.0841 34.2422 38.3317 33.1842C38.356 33.0814 38.3583 32.9747 38.3385 32.8708Z" fill="#688800"/>
<path d="M27.1849 16.0801C26.7419 16.0801 26.3828 16.4285 26.3828 16.8585C26.3828 17.2885 26.7419 17.637 27.1849 17.637C29.1015 17.637 30.6606 19.1501 30.6606 21.0101C30.6606 21.4343 31.0257 21.7885 31.4628 21.7885C31.8999 21.7885 32.2649 21.4343 32.2649 21.0101C32.2649 18.2917 29.986 16.0801 27.1849 16.0801Z" fill="#688800"/>
<path d="M27.1851 12.7578C26.8706 12.7578 26.5531 12.7747 26.2415 12.808C25.8012 12.8552 25.4837 13.2399 25.5322 13.6671C25.5809 14.0943 25.9769 14.4014 26.4175 14.3555C26.6709 14.3283 26.929 14.3145 27.185 14.3145C30.9886 14.3145 34.083 17.3176 34.083 21.0089C34.083 21.2574 34.0688 21.508 34.0408 21.7539C33.9924 22.1812 34.3099 22.5659 34.7502 22.6131C35.1847 22.6586 35.5874 22.3472 35.6354 21.9247C35.6698 21.6224 35.6872 21.3141 35.6872 21.0089C35.6874 16.4593 31.8733 12.7578 27.1851 12.7578Z" fill="#688800"/>
<path d="M27.185 9.4375C26.8804 9.4375 26.5723 9.44886 26.2688 9.47109C25.8271 9.50362 25.4961 9.8774 25.5297 10.3061C25.5633 10.7349 25.9466 11.0554 26.3901 11.0234C26.6534 11.004 26.9209 10.9943 27.1851 10.9943C32.8757 10.9943 37.5054 15.4873 37.5054 21.01C37.5054 21.7914 37.4124 22.5692 37.2293 23.3219C37.1299 23.7297 37.3929 24.1503 37.8105 24.2547C38.2396 24.3621 38.6886 24.098 38.7903 23.68C39.0021 22.8101 39.1094 21.9119 39.1094 21.01C39.1095 14.629 33.7602 9.4375 27.185 9.4375Z" fill="#688800"/>
</g>
<defs>
<filter id="filter0_d_319_27" x="0" y="0" width="53" height="53" filterUnits="userSpaceOnUse" color-interpolation-filters="sRGB">
<feFlood flood-opacity="0" result="BackgroundImageFix"/>
<feColorMatrix in="SourceAlpha" type="matrix" values="0 0 0 0 0 0 0 0 0 0 0 0 0 0 0 0 0 0 127 0" result="hardAlpha"/>
<feOffset dy="4"/>
<feGaussianBlur stdDeviation="2"/>
<feComposite in2="hardAlpha" operator="out"/>
<feColorMatrix type="matrix" values="0 0 0 0 0 0 0 0 0 0 0 0 0 0 0 0 0 0 0.25 0"/>
<feBlend mode="normal" in2="BackgroundImageFix" result="effect1_dropShadow_319_27"/>
<feBlend mode="normal" in="SourceGraphic" in2="effect1_dropShadow_319_27" result="shape"/>
</filter>
</defs>
</svg>
